<?xml version="1.0" standalone="no"?>
<!DOCTYPE svg PUBLIC "-//W3C//DTD SVG 20010904//EN"
 "http://www.w3.org/TR/2001/REC-SVG-20010904/DTD/svg10.dtd">
<svg version="1.0" xmlns="http://www.w3.org/2000/svg"
 width="611.000000pt" height="547.000000pt" viewBox="0 0 611.000000 547.000000"
 preserveAspectRatio="xMidYMid meet">

<g transform="translate(0.000000,547.000000) scale(0.100000,-0.100000)"
fill="#000000" stroke="none">
<path d="M1980 3572 l0 -890 73 -39 72 -39 3 528 c2 438 5 528 16 528 7 0 32
-20 55 -45 l41 -45 0 -507 c0 -280 4 -513 8 -519 10 -16 230 -133 236 -126 4
3 6 216 6 474 0 257 4 468 8 468 4 0 29 -22 55 -48 l47 -48 0 -459 0 -460 59
-32 c33 -18 64 -33 70 -33 8 0 10 259 9 887 l-3 887 -365 199 c-201 109 -371
201 -377 204 -10 4 -13 -177 -13 -885z"/>
<path d="M4450 4299 c-127 -19 -1540 -219 -1546 -219 -2 0 -4 -419 -4 -930 l0
-930 23 5 c18 4 1486 212 1637 232 25 3 51 10 58 16 9 7 12 205 12 928 l0 919
-27 -1 c-16 -1 -84 -10 -153 -20z m110 -914 c0 -476 -2 -865 -5 -865 -3 0
-359 -49 -790 -110 -431 -60 -789 -110 -796 -110 -9 0 -11 179 -6 861 3 474 7
863 9 864 3 3 1542 221 1576 224 9 1 12 -178 12 -864z"/>
<path d="M3590 3305 l0 -385 180 0 181 0 -3 63 -3 62 -112 3 -113 3 0 99 0
100 115 0 115 0 0 60 0 59 -112 3 -113 3 -3 93 -3 92 116 0 115 0 0 65 0 65
-180 0 -180 0 0 -385z"/>
<path d="M2766 1905 c-21 -7 -52 -26 -68 -42 -53 -49 -58 -74 -58 -288 0 -219
5 -241 63 -292 90 -79 215 -58 279 45 22 35 23 48 26 231 3 161 1 201 -13 237
-20 52 -71 99 -122 113 -48 14 -59 13 -107 -4z m105 -124 l29 -29 0 -174 c0
-188 -5 -209 -57 -229 -28 -10 -77 10 -87 36 -11 29 -7 365 5 386 10 20 41 37
67 38 8 1 27 -12 43 -28z"/>
<path d="M3992 1895 c-37 -19 -59 -39 -77 -69 -24 -40 -25 -50 -27 -246 -3
-229 -1 -239 66 -298 86 -75 206 -57 269 41 l27 41 0 211 0 211 -29 45 c-51
82 -143 107 -229 64z m130 -114 c15 -14 17 -42 19 -204 2 -179 1 -190 -19
-209 -29 -29 -80 -28 -104 1 -16 21 -18 43 -18 211 0 166 2 189 18 202 35 31
72 31 104 -1z"/>
<path d="M4822 1909 c-46 -14 -109 -79 -122 -129 -7 -26 -10 -111 -8 -223 3
-154 6 -188 22 -220 35 -71 132 -117 206 -97 49 13 108 63 126 107 17 40 20
407 3 450 -15 40 -57 82 -104 104 -44 20 -73 22 -123 8z m111 -131 c15 -18 17
-43 17 -198 0 -98 -3 -186 -6 -195 -10 -26 -59 -46 -87 -36 -52 20 -57 41 -57
229 l0 174 30 30 c25 24 36 29 58 24 15 -4 35 -16 45 -28z"/>
<path d="M5257 1905 c-50 -17 -85 -50 -108 -100 -16 -34 -19 -66 -19 -230 0
-212 8 -247 69 -298 28 -23 86 -47 116 -47 30 0 88 24 116 47 52 44 69 94 69
206 l0 97 -90 0 -90 0 0 -55 0 -55 35 0 c33 0 35 -2 35 -34 0 -75 -74 -113
-126 -66 -24 23 -24 26 -24 203 l0 179 29 29 c16 16 37 29 46 29 31 0 75 -55
75 -94 l0 -36 55 0 55 0 0 43 c-1 85 -60 165 -138 187 -47 13 -58 12 -105 -5z"/>
<path d="M745 1897 c-3 -7 -4 -156 -3 -332 l3 -320 151 -3 152 -3 4 46 c2 24
2 49 0 55 -2 5 -34 10 -72 10 -37 0 -82 3 -99 6 l-32 7 3 81 3 81 98 3 97 3 0
54 0 55 -100 0 -101 0 3 78 3 77 98 3 97 3 0 54 0 55 -150 0 c-112 0 -152 -3
-155 -13z"/>
<path d="M1148 1613 c-2 -164 -1 -315 1 -337 l3 -38 112 4 c116 5 141 12 189
57 55 50 61 73 65 246 5 198 -5 252 -57 304 -47 47 -96 61 -214 61 l-96 0 -3
-297z m239 152 c22 -25 23 -34 23 -181 0 -184 -7 -207 -71 -224 -77 -21 -74
-30 -77 205 -1 115 0 216 3 224 9 24 95 8 122 -24z"/>
<path d="M1665 1898 c-18 -57 -115 -642 -107 -650 5 -5 29 -8 53 -6 42 3 44 5
49 38 l5 35 70 0 70 0 5 -35 c5 -33 7 -35 49 -38 24 -2 48 1 53 6 8 8 -94 631
-107 653 -9 14 -135 11 -140 -3z m99 -341 c9 -65 16 -123 16 -128 0 -5 -20 -9
-45 -9 -54 0 -52 -8 -25 150 11 63 20 120 20 125 0 6 4 3 9 -5 5 -8 16 -68 25
-133z"/>
<path d="M1995 1897 c-3 -7 -4 -156 -3 -332 l3 -320 50 0 50 0 3 238 c1 140 6
237 12 237 5 0 28 -28 51 -62 48 -70 37 -72 109 28 l35 49 5 -245 5 -245 50 0
50 0 0 330 0 330 -57 3 -56 3 -47 -66 c-26 -36 -48 -65 -50 -65 -2 0 -24 29
-50 65 l-46 65 -55 0 c-35 0 -56 -5 -59 -13z"/>
<path d="M3092 1578 l3 -333 48 -3 47 -3 0 172 c0 106 4 169 9 164 5 -6 43
-82 85 -170 l76 -160 40 -3 40 -3 0 335 0 336 -50 0 -50 0 -2 -186 -3 -185
-80 185 -80 186 -43 0 -42 0 2 -332z"/>
<path d="M3494 1896 c-3 -8 -4 -31 -2 -52 l3 -39 62 -3 63 -3 2 -277 3 -277
53 -3 52 -3 0 38 c1 21 2 146 3 278 l2 240 63 3 62 3 0 54 0 55 -180 0 c-145
0 -182 -3 -186 -14z"/>
<path d="M4338 1838 c-1 -40 -3 -190 -3 -333 l0 -260 155 0 155 0 3 53 3 52
-80 0 c-44 0 -92 5 -107 10 l-27 11 4 267 4 267 -52 3 -51 3 -4 -73z"/>
<path d="M5520 1903 c0 -5 25 -83 57 -173 l56 -165 6 -160 6 -160 53 -3 52 -3
1 38 c1 21 0 81 -1 133 -2 93 0 99 64 289 36 107 66 198 66 203 0 5 -24 8 -52
6 l-53 -3 -34 -120 c-18 -66 -35 -122 -37 -124 -8 -9 -16 12 -47 125 l-32 119
-53 3 c-28 2 -52 -1 -52 -5z"/>
<path d="M6070 500 c0 -97 1 -100 23 -99 16 1 18 2 5 6 -16 4 -18 17 -18 93 0
76 2 89 18 93 13 4 11 5 -5 6 -22 1 -23 -2 -23 -99z"/>
<path d="M6080 191 c0 -30 4 -41 16 -41 11 0 14 9 12 37 -4 52 -28 56 -28 4z"/>
<path d="M6101 84 c0 -11 3 -14 6 -6 3 7 2 16 -1 19 -3 4 -6 -2 -5 -13z"/>
</g>
</svg>
