<svg width="640" height="742" viewBox="0 0 640 742" fill="none" xmlns="http://www.w3.org/2000/svg">
<rect width="640" height="742" fill="white"/>
<path d="M312.641 208.926H295.695V222.784H315.38V227H290.539V187.898H315.111V192.142H295.695V204.71H312.641V208.926ZM321.798 227V187.898H332.836C336.238 187.898 339.245 188.65 341.859 190.154C344.473 191.658 346.487 193.798 347.902 196.573C349.334 199.348 350.059 202.535 350.077 206.133V208.631C350.077 212.319 349.361 215.551 347.929 218.326C346.514 221.101 344.482 223.231 341.833 224.717C339.201 226.203 336.13 226.964 332.621 227H321.798ZM326.955 192.142V222.784H332.379C336.354 222.784 339.442 221.548 341.645 219.078C343.865 216.607 344.975 213.089 344.975 208.523V206.241C344.975 201.801 343.927 198.354 341.833 195.901C339.756 193.431 336.802 192.177 332.97 192.142H326.955ZM378.893 216.795H362.511L358.832 227H353.515L368.446 187.898H372.958L387.917 227H382.626L378.893 216.795ZM364.069 212.552H377.362L370.702 194.263L364.069 212.552ZM399.84 187.898L412.624 219.803L425.407 187.898H432.094V227H426.938V211.773L427.421 195.337L414.584 227H410.636L397.826 195.418L398.336 211.773V227H393.18V187.898H399.84Z" fill="#01308D"/>
<path d="M328.694 252.024C328.694 254.114 328.343 255.94 327.64 257.503C326.937 259.056 325.94 260.242 324.651 261.062C323.362 261.883 321.858 262.293 320.14 262.293C318.46 262.293 316.971 261.883 315.672 261.062C314.373 260.232 313.362 259.056 312.64 257.532C311.927 255.999 311.561 254.227 311.541 252.215V250.677C311.541 248.626 311.897 246.814 312.61 245.242C313.323 243.67 314.329 242.469 315.628 241.639C316.937 240.799 318.431 240.379 320.11 240.379C321.819 240.379 323.323 240.794 324.622 241.624C325.931 242.444 326.937 243.641 327.64 245.213C328.343 246.775 328.694 248.597 328.694 250.677V252.024ZM325.896 250.647C325.896 248.118 325.389 246.18 324.373 244.832C323.357 243.475 321.937 242.796 320.11 242.796C318.333 242.796 316.932 243.475 315.906 244.832C314.891 246.18 314.368 248.055 314.339 250.457V252.024C314.339 254.476 314.852 256.404 315.877 257.811C316.912 259.207 318.333 259.905 320.14 259.905C321.956 259.905 323.362 259.246 324.358 257.928C325.354 256.6 325.867 254.7 325.896 252.229V250.647ZM335.052 246.15L335.14 248.143C336.351 246.619 337.933 245.857 339.886 245.857C343.235 245.857 344.925 247.747 344.954 251.526V262H342.244V251.512C342.234 250.369 341.971 249.524 341.453 248.978C340.945 248.431 340.149 248.157 339.065 248.157C338.187 248.157 337.415 248.392 336.751 248.86C336.087 249.329 335.569 249.944 335.198 250.706V262H332.488V246.15H335.052ZM352.718 242.312V246.15H355.677V248.245H352.718V258.074C352.718 258.709 352.85 259.188 353.113 259.51C353.377 259.822 353.826 259.979 354.461 259.979C354.773 259.979 355.203 259.92 355.75 259.803V262C355.037 262.195 354.344 262.293 353.67 262.293C352.459 262.293 351.546 261.927 350.931 261.194C350.315 260.462 350.008 259.422 350.008 258.074V248.245H347.122V246.15H350.008V242.312H352.718ZM357.845 253.929C357.845 252.376 358.147 250.979 358.753 249.739C359.368 248.499 360.218 247.542 361.302 246.868C362.396 246.194 363.641 245.857 365.037 245.857C367.195 245.857 368.938 246.604 370.267 248.099C371.604 249.593 372.273 251.58 372.273 254.061V254.251C372.273 255.794 371.976 257.181 371.38 258.411C370.794 259.632 369.949 260.584 368.846 261.268C367.752 261.951 366.492 262.293 365.066 262.293C362.918 262.293 361.175 261.546 359.837 260.052C358.509 258.558 357.845 256.58 357.845 254.119V253.929ZM360.569 254.251C360.569 256.009 360.975 257.42 361.785 258.484C362.605 259.549 363.699 260.081 365.066 260.081C366.443 260.081 367.537 259.544 368.348 258.47C369.158 257.386 369.563 255.872 369.563 253.929C369.563 252.19 369.148 250.784 368.318 249.71C367.498 248.626 366.404 248.084 365.037 248.084C363.699 248.084 362.62 248.616 361.8 249.681C360.979 250.745 360.569 252.269 360.569 254.251ZM378.616 262H375.906V239.5H378.616V262ZM382.249 253.929C382.249 252.376 382.552 250.979 383.157 249.739C383.772 248.499 384.622 247.542 385.706 246.868C386.8 246.194 388.045 245.857 389.441 245.857C391.6 245.857 393.343 246.604 394.671 248.099C396.009 249.593 396.678 251.58 396.678 254.061V254.251C396.678 255.794 396.38 257.181 395.784 258.411C395.198 259.632 394.354 260.584 393.25 261.268C392.156 261.951 390.896 262.293 389.471 262.293C387.322 262.293 385.579 261.546 384.241 260.052C382.913 258.558 382.249 256.58 382.249 254.119V253.929ZM384.974 254.251C384.974 256.009 385.379 257.42 386.189 258.484C387.01 259.549 388.104 260.081 389.471 260.081C390.848 260.081 391.941 259.544 392.752 258.47C393.562 257.386 393.968 255.872 393.968 253.929C393.968 252.19 393.553 250.784 392.723 249.71C391.902 248.626 390.809 248.084 389.441 248.084C388.104 248.084 387.024 248.616 386.204 249.681C385.384 250.745 384.974 252.269 384.974 254.251ZM399.432 253.943C399.432 251.473 400.003 249.51 401.146 248.055C402.288 246.59 403.802 245.857 405.687 245.857C407.62 245.857 409.129 246.541 410.213 247.908L410.345 246.15H412.82V261.619C412.82 263.67 412.21 265.286 410.989 266.468C409.778 267.649 408.147 268.24 406.097 268.24C404.954 268.24 403.836 267.996 402.742 267.508C401.648 267.02 400.813 266.351 400.237 265.501L401.644 263.875C402.806 265.311 404.227 266.028 405.906 266.028C407.225 266.028 408.25 265.657 408.982 264.915C409.725 264.173 410.096 263.128 410.096 261.78V260.418C409.012 261.668 407.532 262.293 405.657 262.293C403.802 262.293 402.298 261.546 401.146 260.052C400.003 258.558 399.432 256.521 399.432 253.943ZM402.156 254.251C402.156 256.038 402.522 257.444 403.255 258.47C403.987 259.485 405.013 259.993 406.331 259.993C408.04 259.993 409.295 259.217 410.096 257.664V250.428C409.266 248.914 408.021 248.157 406.36 248.157C405.042 248.157 404.012 248.67 403.27 249.695C402.527 250.721 402.156 252.239 402.156 254.251ZM422.107 258.03L425.799 246.15H428.699L422.327 264.446C421.341 267.083 419.773 268.401 417.625 268.401L417.112 268.357L416.102 268.167V265.97L416.834 266.028C417.752 266.028 418.465 265.843 418.973 265.472C419.49 265.101 419.915 264.422 420.247 263.436L420.848 261.824L415.193 246.15H418.152L422.107 258.03Z" fill="#3380C4"/>
<path d="M167 206.5C167 206.5 182.5 179.658 196.184 185C209.868 190.342 218.416 204.8 218.416 204.8L240.5 180" stroke="url(#paint0_linear)" stroke-width="5"/>
<path d="M167 204.2C167 204.2 182.5 229.342 196.184 224C209.868 218.658 218.416 204.2 218.416 204.2L240.5 229" stroke="url(#paint1_linear)" stroke-width="5"/>
<circle cx="238.5" cy="182" r="3.5" fill="#01308D" stroke="#C3CEFD"/>
<circle cx="218.5" cy="204" r="3.5" fill="#01308D" stroke="#C3CEFD"/>
<circle cx="238.5" cy="227" r="3.5" fill="#01308D" stroke="#C3CEFD"/>
<path d="M263 144.874C226.463 104.912 192.155 109.397 123 132.874L169 202.874" stroke="url(#paint2_linear)" stroke-width="10"/>
<path d="M263 266C226.463 305.962 192.155 301.477 123 278L169 208" stroke="url(#paint3_linear)" stroke-width="10"/>
<path d="M320.641 493.926H303.695V507.784H323.38V512H298.539V472.898H323.111V477.142H303.695V489.71H320.641V493.926ZM329.798 512V472.898H340.836C344.238 472.898 347.245 473.65 349.859 475.154C352.473 476.658 354.487 478.798 355.902 481.573C357.334 484.348 358.059 487.535 358.077 491.133V493.631C358.077 497.319 357.361 500.551 355.929 503.326C354.514 506.101 352.482 508.231 349.833 509.717C347.201 511.203 344.13 511.964 340.621 512H329.798ZM334.955 477.142V507.784H340.379C344.354 507.784 347.442 506.548 349.645 504.078C351.865 501.607 352.975 498.089 352.975 493.523V491.241C352.975 486.801 351.927 483.354 349.833 480.901C347.756 478.431 344.802 477.177 340.97 477.142H334.955ZM386.893 501.795H370.511L366.832 512H361.515L376.446 472.898H380.958L395.917 512H390.626L386.893 501.795ZM372.069 497.552H385.362L378.702 479.263L372.069 497.552ZM407.84 472.898L420.624 504.803L433.407 472.898H440.094V512H434.938V496.773L435.421 480.337L422.584 512H418.636L405.826 480.418L406.336 496.773V512H401.18V472.898H407.84Z" fill="#01308D"/>
<path d="M336.694 537.024C336.694 539.114 336.343 540.94 335.64 542.503C334.937 544.056 333.94 545.242 332.651 546.062C331.362 546.883 329.858 547.293 328.14 547.293C326.46 547.293 324.971 546.883 323.672 546.062C322.373 545.232 321.362 544.056 320.64 542.532C319.927 540.999 319.561 539.227 319.541 537.215V535.677C319.541 533.626 319.897 531.814 320.61 530.242C321.323 528.67 322.329 527.469 323.628 526.639C324.937 525.799 326.431 525.379 328.11 525.379C329.819 525.379 331.323 525.794 332.622 526.624C333.931 527.444 334.937 528.641 335.64 530.213C336.343 531.775 336.694 533.597 336.694 535.677V537.024ZM333.896 535.647C333.896 533.118 333.389 531.18 332.373 529.832C331.357 528.475 329.937 527.796 328.11 527.796C326.333 527.796 324.932 528.475 323.906 529.832C322.891 531.18 322.368 533.055 322.339 535.457V537.024C322.339 539.476 322.852 541.404 323.877 542.811C324.912 544.207 326.333 544.905 328.14 544.905C329.956 544.905 331.362 544.246 332.358 542.928C333.354 541.6 333.867 539.7 333.896 537.229V535.647ZM343.052 531.15L343.14 533.143C344.351 531.619 345.933 530.857 347.886 530.857C351.235 530.857 352.925 532.747 352.954 536.526V547H350.244V536.512C350.234 535.369 349.971 534.524 349.453 533.978C348.945 533.431 348.149 533.157 347.065 533.157C346.187 533.157 345.415 533.392 344.751 533.86C344.087 534.329 343.569 534.944 343.198 535.706V547H340.488V531.15H343.052ZM360.718 527.312V531.15H363.677V533.245H360.718V543.074C360.718 543.709 360.85 544.188 361.113 544.51C361.377 544.822 361.826 544.979 362.461 544.979C362.773 544.979 363.203 544.92 363.75 544.803V547C363.037 547.195 362.344 547.293 361.67 547.293C360.459 547.293 359.546 546.927 358.931 546.194C358.315 545.462 358.008 544.422 358.008 543.074V533.245H355.122V531.15H358.008V527.312H360.718ZM365.845 538.929C365.845 537.376 366.147 535.979 366.753 534.739C367.368 533.499 368.218 532.542 369.302 531.868C370.396 531.194 371.641 530.857 373.037 530.857C375.195 530.857 376.938 531.604 378.267 533.099C379.604 534.593 380.273 536.58 380.273 539.061V539.251C380.273 540.794 379.976 542.181 379.38 543.411C378.794 544.632 377.949 545.584 376.846 546.268C375.752 546.951 374.492 547.293 373.066 547.293C370.918 547.293 369.175 546.546 367.837 545.052C366.509 543.558 365.845 541.58 365.845 539.119V538.929ZM368.569 539.251C368.569 541.009 368.975 542.42 369.785 543.484C370.605 544.549 371.699 545.081 373.066 545.081C374.443 545.081 375.537 544.544 376.348 543.47C377.158 542.386 377.563 540.872 377.563 538.929C377.563 537.19 377.148 535.784 376.318 534.71C375.498 533.626 374.404 533.084 373.037 533.084C371.699 533.084 370.62 533.616 369.8 534.681C368.979 535.745 368.569 537.269 368.569 539.251ZM386.616 547H383.906V524.5H386.616V547ZM390.249 538.929C390.249 537.376 390.552 535.979 391.157 534.739C391.772 533.499 392.622 532.542 393.706 531.868C394.8 531.194 396.045 530.857 397.441 530.857C399.6 530.857 401.343 531.604 402.671 533.099C404.009 534.593 404.678 536.58 404.678 539.061V539.251C404.678 540.794 404.38 542.181 403.784 543.411C403.198 544.632 402.354 545.584 401.25 546.268C400.156 546.951 398.896 547.293 397.471 547.293C395.322 547.293 393.579 546.546 392.241 545.052C390.913 543.558 390.249 541.58 390.249 539.119V538.929ZM392.974 539.251C392.974 541.009 393.379 542.42 394.189 543.484C395.01 544.549 396.104 545.081 397.471 545.081C398.848 545.081 399.941 544.544 400.752 543.47C401.562 542.386 401.968 540.872 401.968 538.929C401.968 537.19 401.553 535.784 400.723 534.71C399.902 533.626 398.809 533.084 397.441 533.084C396.104 533.084 395.024 533.616 394.204 534.681C393.384 535.745 392.974 537.269 392.974 539.251ZM407.432 538.943C407.432 536.473 408.003 534.51 409.146 533.055C410.288 531.59 411.802 530.857 413.687 530.857C415.62 530.857 417.129 531.541 418.213 532.908L418.345 531.15H420.82V546.619C420.82 548.67 420.21 550.286 418.989 551.468C417.778 552.649 416.147 553.24 414.097 553.24C412.954 553.24 411.836 552.996 410.742 552.508C409.648 552.02 408.813 551.351 408.237 550.501L409.644 548.875C410.806 550.311 412.227 551.028 413.906 551.028C415.225 551.028 416.25 550.657 416.982 549.915C417.725 549.173 418.096 548.128 418.096 546.78V545.418C417.012 546.668 415.532 547.293 413.657 547.293C411.802 547.293 410.298 546.546 409.146 545.052C408.003 543.558 407.432 541.521 407.432 538.943ZM410.156 539.251C410.156 541.038 410.522 542.444 411.255 543.47C411.987 544.485 413.013 544.993 414.331 544.993C416.04 544.993 417.295 544.217 418.096 542.664V535.428C417.266 533.914 416.021 533.157 414.36 533.157C413.042 533.157 412.012 533.67 411.27 534.695C410.527 535.721 410.156 537.239 410.156 539.251ZM430.107 543.03L433.799 531.15H436.699L430.327 549.446C429.341 552.083 427.773 553.401 425.625 553.401L425.112 553.357L424.102 553.167V550.97L424.834 551.028C425.752 551.028 426.465 550.843 426.973 550.472C427.49 550.101 427.915 549.422 428.247 548.436L428.848 546.824L423.193 531.15H426.152L430.107 543.03Z" fill="#3380C4"/>
<path d="M169 487C169 487 189 457.658 202.684 463C216.368 468.342 224.916 482.8 224.916 482.8L247 458" stroke="url(#paint4_linear)" stroke-width="5"/>
<path d="M169 478C169 478 189 507.342 202.684 502C216.368 496.658 224.916 482.2 224.916 482.2L247 507" stroke="url(#paint5_linear)" stroke-width="5"/>
<circle cx="245" cy="460" r="3.5" fill="#01308D" stroke="#C3CEFD"/>
<circle cx="225" cy="482" r="3.5" fill="#01308D" stroke="#C3CEFD"/>
<circle cx="245" cy="505" r="3.5" fill="#01308D" stroke="#C3CEFD"/>
<path d="M266 429.874C229.463 389.912 195.155 394.397 126 417.874L172 487.874" stroke="url(#paint6_linear)" stroke-width="10"/>
<path d="M263 557C226.463 596.962 192.155 592.477 123 569L169 499" stroke="url(#paint7_linear)" stroke-width="10"/>
<defs>
<linearGradient id="paint0_linear" x1="250.5" y1="201" x2="113" y2="231" gradientUnits="userSpaceOnUse">
<stop stop-color="#01308D"/>
<stop offset="1" stop-color="#008000" stop-opacity="0"/>
</linearGradient>
<linearGradient id="paint1_linear" x1="250.5" y1="208" x2="113" y2="178" gradientUnits="userSpaceOnUse">
<stop stop-color="#01308D"/>
<stop offset="1" stop-color="#008000" stop-opacity="0"/>
</linearGradient>
<linearGradient id="paint2_linear" x1="193" y1="115" x2="193" y2="202.874" gradientUnits="userSpaceOnUse">
<stop stop-color="#01308D"/>
<stop offset="1" stop-color="#008000" stop-opacity="0.35"/>
</linearGradient>
<linearGradient id="paint3_linear" x1="193" y1="295.874" x2="193" y2="208" gradientUnits="userSpaceOnUse">
<stop stop-color="#01308D"/>
<stop offset="1" stop-color="#008000" stop-opacity="0.35"/>
</linearGradient>
<linearGradient id="paint4_linear" x1="257" y1="479" x2="119.5" y2="509" gradientUnits="userSpaceOnUse">
<stop stop-color="#01308D"/>
<stop offset="1" stop-color="#008000" stop-opacity="0"/>
</linearGradient>
<linearGradient id="paint5_linear" x1="257" y1="486" x2="119.5" y2="456" gradientUnits="userSpaceOnUse">
<stop stop-color="#01308D"/>
<stop offset="1" stop-color="#008000" stop-opacity="0"/>
</linearGradient>
<linearGradient id="paint6_linear" x1="196" y1="400" x2="196" y2="487.874" gradientUnits="userSpaceOnUse">
<stop stop-color="#01308D"/>
<stop offset="1" stop-color="#008000" stop-opacity="0.35"/>
</linearGradient>
<linearGradient id="paint7_linear" x1="193" y1="586.874" x2="193" y2="499" gradientUnits="userSpaceOnUse">
<stop stop-color="#01308D"/>
<stop offset="1" stop-color="#008000" stop-opacity="0.35"/>
</linearGradient>
</defs>
</svg>
