<svg width="742" height="2158" viewBox="0 0 742 2158" fill="none" xmlns="http://www.w3.org/2000/svg">
<rect width="727" height="2158" fill="white"/>
<path fill-rule="evenodd" clip-rule="evenodd" d="M242.096 407.662L217.735 435.019L215.994 432.074L215.993 432.073L215.992 432.072L215.992 432.07L215.979 432.049C215.966 432.027 215.945 431.993 215.916 431.946C215.858 431.852 215.768 431.707 215.647 431.518C215.404 431.14 215.037 430.585 214.552 429.898C213.582 428.522 212.146 426.628 210.301 424.574C206.581 420.434 201.333 415.799 195.004 413.328C192.485 412.345 189.731 412.756 186.738 414.321C183.723 415.897 180.728 418.518 178.025 421.443C175.341 424.346 173.052 427.43 171.427 429.802C170.617 430.984 169.978 431.981 169.544 432.678C169.327 433.026 169.161 433.3 169.051 433.483C168.996 433.575 168.956 433.644 168.929 433.689L168.9 433.738L168.894 433.749L168.893 433.75C168.893 433.75 168.894 433.75 166.729 432.499C164.564 431.249 164.564 431.249 164.564 431.248L164.569 431.24L164.58 431.222L164.618 431.156C164.651 431.1 164.699 431.019 164.761 430.916C164.885 430.709 165.066 430.41 165.299 430.035C165.766 429.285 166.445 428.227 167.302 426.976C169.011 424.482 171.451 421.189 174.353 418.049C177.236 414.931 180.682 411.844 184.422 409.889C188.184 407.923 192.499 406.983 196.822 408.671C204.177 411.542 210.045 416.808 214.02 421.232C215.894 423.318 217.377 425.251 218.429 426.721L238.362 404.337L242.096 407.662Z" fill="url(#paint0_linear)"/>
<path fill-rule="evenodd" clip-rule="evenodd" d="M242.096 453.337L217.735 425.98L215.994 428.925L215.993 428.926L215.993 428.927L215.992 428.929L215.979 428.95C215.966 428.972 215.945 429.006 215.916 429.053C215.858 429.147 215.768 429.292 215.647 429.481C215.404 429.859 215.037 430.414 214.553 431.101C213.582 432.477 212.146 434.371 210.301 436.425C206.581 440.565 201.333 445.2 195.004 447.671C192.43 448.676 189.639 448.321 186.653 446.902C183.643 445.47 180.657 443.051 177.962 440.34C175.286 437.648 173.002 434.778 171.381 432.566C170.573 431.464 169.936 430.535 169.503 429.884C169.287 429.559 169.122 429.305 169.013 429.134C168.958 429.049 168.918 428.984 168.891 428.943L168.863 428.898L168.857 428.888L168.857 428.887C168.857 428.887 168.857 428.888 166.729 430.2C164.601 431.511 164.601 431.512 164.602 431.513L164.606 431.52L164.617 431.538L164.656 431.6C164.689 431.653 164.737 431.729 164.8 431.827C164.924 432.022 165.106 432.302 165.34 432.654C165.809 433.358 166.489 434.351 167.348 435.523C169.061 437.859 171.507 440.94 174.417 443.866C177.307 446.773 180.762 449.637 184.507 451.417C188.276 453.21 192.554 453.995 196.822 452.328C204.177 449.457 210.045 444.191 214.02 439.767C215.894 437.681 217.378 435.748 218.429 434.278L238.362 456.662L242.096 453.337Z" fill="url(#paint1_linear)"/>
<path d="M242.229 408C242.229 410.209 240.438 412 238.229 412C236.019 412 234.229 410.209 234.229 408C234.229 405.79 236.019 404 238.229 404C240.438 404 242.229 405.79 242.229 408Z" fill="#01308D"/>
<path fill-rule="evenodd" clip-rule="evenodd" d="M238.229 411C239.885 411 241.229 409.656 241.229 408C241.229 406.343 239.885 405 238.229 405C236.572 405 235.229 406.343 235.229 408C235.229 409.656 236.572 411 238.229 411ZM238.229 412C240.438 412 242.229 410.209 242.229 408C242.229 405.79 240.438 404 238.229 404C236.019 404 234.229 405.79 234.229 408C234.229 410.209 236.019 412 238.229 412Z" fill="#C3CEFD"/>
<path d="M222.229 430C222.229 432.209 220.438 434 218.229 434C216.019 434 214.229 432.209 214.229 430C214.229 427.79 216.019 426 218.229 426C220.438 426 222.229 427.79 222.229 430Z" fill="#01308D"/>
<path fill-rule="evenodd" clip-rule="evenodd" d="M218.229 433C219.885 433 221.229 431.656 221.229 430C221.229 428.343 219.885 427 218.229 427C216.572 427 215.229 428.343 215.229 430C215.229 431.656 216.572 433 218.229 433ZM218.229 434C220.438 434 222.229 432.209 222.229 430C222.229 427.79 220.438 426 218.229 426C216.019 426 214.229 427.79 214.229 430C214.229 432.209 216.019 434 218.229 434Z" fill="#C3CEFD"/>
<path d="M242.229 453C242.229 455.209 240.438 457 238.229 457C236.019 457 234.229 455.209 234.229 453C234.229 450.79 236.019 449 238.229 449C240.438 449 242.229 450.79 242.229 453Z" fill="#01308D"/>
<path fill-rule="evenodd" clip-rule="evenodd" d="M238.229 456C239.885 456 241.229 454.656 241.229 453C241.229 451.343 239.885 450 238.229 450C236.572 450 235.229 451.343 235.229 453C235.229 454.656 236.572 456 238.229 456ZM238.229 457C240.438 457 242.229 455.209 242.229 453C242.229 450.79 240.438 449 238.229 449C236.019 449 234.229 450.79 234.229 453C234.229 455.209 236.019 457 238.229 457Z" fill="#C3CEFD"/>
<path fill-rule="evenodd" clip-rule="evenodd" d="M205.176 336.088C228.545 337.096 247.44 346.742 266.419 367.499L259.039 374.247C241.48 355.043 224.953 346.95 204.745 346.079C185.257 345.239 161.968 351.075 130.469 361.547L172.907 426.127L164.55 431.619L115 356.217L121.121 354.139C155.632 342.423 182.331 335.104 205.176 336.088Z" fill="url(#paint2_linear)"/>
<path fill-rule="evenodd" clip-rule="evenodd" d="M205.176 526.785C228.545 525.777 247.44 516.131 266.419 495.374L259.039 488.626C241.48 507.83 224.953 515.923 204.745 516.794C185.257 517.634 161.968 511.798 130.469 501.326L172.907 436.746L164.55 431.254L115 506.656L121.121 508.734C155.632 520.45 182.331 527.77 205.176 526.785Z" fill="url(#paint3_linear)"/>
<path fill-rule="evenodd" clip-rule="evenodd" d="M242.096 733.662L217.735 761.019L215.994 758.074L215.993 758.073L215.992 758.072L215.992 758.07L215.979 758.049C215.966 758.027 215.945 757.993 215.916 757.946C215.858 757.852 215.768 757.707 215.647 757.518C215.404 757.14 215.037 756.585 214.552 755.898C213.582 754.522 212.146 752.628 210.301 750.574C206.581 746.434 201.333 741.799 195.004 739.328C192.485 738.345 189.731 738.756 186.738 740.321C183.723 741.897 180.728 744.518 178.025 747.443C175.341 750.346 173.052 753.43 171.427 755.802C170.617 756.984 169.978 757.981 169.544 758.678C169.327 759.026 169.161 759.3 169.051 759.483C168.996 759.575 168.956 759.644 168.929 759.689L168.9 759.738L168.894 759.749L168.893 759.75C168.893 759.75 168.894 759.75 166.729 758.499C164.564 757.249 164.564 757.249 164.564 757.248L164.569 757.24L164.58 757.222L164.618 757.156C164.651 757.1 164.699 757.019 164.761 756.916C164.885 756.709 165.066 756.41 165.299 756.035C165.766 755.285 166.445 754.227 167.302 752.976C169.011 750.482 171.451 747.189 174.353 744.049C177.236 740.931 180.682 737.844 184.422 735.889C188.184 733.923 192.499 732.983 196.822 734.671C204.177 737.542 210.045 742.808 214.02 747.232C215.894 749.318 217.377 751.251 218.429 752.721L238.362 730.337L242.096 733.662Z" fill="url(#paint4_linear)"/>
<path fill-rule="evenodd" clip-rule="evenodd" d="M242.096 779.337L217.735 751.98L215.994 754.925L215.993 754.926L215.993 754.927L215.992 754.929L215.979 754.95C215.966 754.972 215.945 755.006 215.916 755.053C215.858 755.147 215.768 755.292 215.647 755.481C215.404 755.859 215.037 756.414 214.553 757.101C213.582 758.477 212.146 760.371 210.301 762.425C206.581 766.565 201.333 771.2 195.004 773.671C192.43 774.676 189.639 774.321 186.653 772.902C183.643 771.47 180.657 769.051 177.962 766.34C175.286 763.648 173.002 760.778 171.381 758.566C170.573 757.464 169.936 756.535 169.503 755.884C169.287 755.559 169.122 755.305 169.013 755.134C168.958 755.049 168.918 754.984 168.891 754.943L168.863 754.898L168.857 754.888L168.857 754.887C168.857 754.887 168.857 754.888 166.729 756.2C164.601 757.511 164.601 757.512 164.602 757.513L164.606 757.52L164.617 757.538L164.656 757.6C164.689 757.653 164.737 757.729 164.8 757.827C164.924 758.022 165.106 758.302 165.34 758.654C165.809 759.358 166.489 760.351 167.348 761.523C169.061 763.859 171.507 766.94 174.417 769.866C177.307 772.773 180.762 775.637 184.507 777.417C188.276 779.21 192.554 779.995 196.822 778.328C204.177 775.457 210.045 770.191 214.02 765.767C215.894 763.681 217.378 761.748 218.429 760.278L238.362 782.662L242.096 779.337Z" fill="url(#paint5_linear)"/>
<path d="M242.229 734C242.229 736.209 240.438 738 238.229 738C236.019 738 234.229 736.209 234.229 734C234.229 731.79 236.019 730 238.229 730C240.438 730 242.229 731.79 242.229 734Z" fill="#01308D"/>
<path fill-rule="evenodd" clip-rule="evenodd" d="M238.229 737C239.885 737 241.229 735.656 241.229 734C241.229 732.343 239.885 731 238.229 731C236.572 731 235.229 732.343 235.229 734C235.229 735.656 236.572 737 238.229 737ZM238.229 738C240.438 738 242.229 736.209 242.229 734C242.229 731.79 240.438 730 238.229 730C236.019 730 234.229 731.79 234.229 734C234.229 736.209 236.019 738 238.229 738Z" fill="#C3CEFD"/>
<path d="M222.229 756C222.229 758.209 220.438 760 218.229 760C216.019 760 214.229 758.209 214.229 756C214.229 753.79 216.019 752 218.229 752C220.438 752 222.229 753.79 222.229 756Z" fill="#01308D"/>
<path fill-rule="evenodd" clip-rule="evenodd" d="M218.229 759C219.885 759 221.229 757.656 221.229 756C221.229 754.343 219.885 753 218.229 753C216.572 753 215.229 754.343 215.229 756C215.229 757.656 216.572 759 218.229 759ZM218.229 760C220.438 760 222.229 758.209 222.229 756C222.229 753.79 220.438 752 218.229 752C216.019 752 214.229 753.79 214.229 756C214.229 758.209 216.019 760 218.229 760Z" fill="#C3CEFD"/>
<path d="M242.229 779C242.229 781.209 240.438 783 238.229 783C236.019 783 234.229 781.209 234.229 779C234.229 776.79 236.019 775 238.229 775C240.438 775 242.229 776.79 242.229 779Z" fill="#01308D"/>
<path fill-rule="evenodd" clip-rule="evenodd" d="M238.229 782C239.885 782 241.229 780.656 241.229 779C241.229 777.343 239.885 776 238.229 776C236.572 776 235.229 777.343 235.229 779C235.229 780.656 236.572 782 238.229 782ZM238.229 783C240.438 783 242.229 781.209 242.229 779C242.229 776.79 240.438 775 238.229 775C236.019 775 234.229 776.79 234.229 779C234.229 781.209 236.019 783 238.229 783Z" fill="#C3CEFD"/>
<path fill-rule="evenodd" clip-rule="evenodd" d="M205.176 662.088C228.545 663.096 247.44 672.742 266.419 693.499L259.039 700.247C241.48 681.043 224.953 672.95 204.745 672.079C185.257 671.239 161.968 677.075 130.469 687.547L172.907 752.127L164.55 757.619L115 682.217L121.121 680.139C155.632 668.423 182.331 661.104 205.176 662.088Z" fill="url(#paint6_linear)"/>
<path fill-rule="evenodd" clip-rule="evenodd" d="M205.176 852.785C228.545 851.777 247.44 842.131 266.419 821.374L259.039 814.626C241.48 833.83 224.953 841.923 204.745 842.794C185.257 843.634 161.968 837.798 130.469 827.326L172.907 762.746L164.55 757.254L115 832.656L121.121 834.734C155.632 846.45 182.331 853.77 205.176 852.785Z" fill="url(#paint7_linear)"/>
<path fill-rule="evenodd" clip-rule="evenodd" d="M123.781 201.086L121.139 203.791L120.951 203.499L120.951 203.499L120.951 203.499L120.95 203.499L120.949 203.497C120.948 203.495 120.945 203.491 120.942 203.487C120.936 203.477 120.926 203.463 120.913 203.444C120.887 203.407 120.847 203.352 120.794 203.284C120.689 203.148 120.533 202.961 120.333 202.758C119.93 202.348 119.361 201.89 118.675 201.646C118.402 201.549 118.103 201.589 117.778 201.744C117.451 201.9 117.127 202.159 116.834 202.448C116.543 202.735 116.294 203.04 116.118 203.275C116.03 203.392 115.961 203.49 115.914 203.559C115.89 203.594 115.872 203.621 115.861 203.639C115.855 203.648 115.85 203.655 115.847 203.659L115.844 203.664L115.844 203.665L115.843 203.665C115.843 203.665 115.843 203.665 115.609 203.541C115.374 203.418 115.374 203.418 115.374 203.418L115.375 203.417L115.376 203.415L115.38 203.409C115.383 203.403 115.389 203.395 115.395 203.385C115.409 203.364 115.428 203.335 115.454 203.298C115.504 203.224 115.578 203.119 115.671 202.995C115.856 202.749 116.121 202.423 116.435 202.113C116.748 201.804 117.122 201.499 117.527 201.306C117.935 201.111 118.403 201.018 118.872 201.185C119.669 201.469 120.306 201.99 120.737 202.427C120.94 202.634 121.101 202.825 121.215 202.97L123.376 200.757L123.781 201.086Z" fill="url(#paint8_linear)"/>
<path fill-rule="evenodd" clip-rule="evenodd" d="M123.781 205.602L121.139 202.897L120.951 203.188L120.95 203.188L120.95 203.188L120.95 203.188L120.949 203.191C120.948 203.193 120.945 203.196 120.942 203.201C120.936 203.21 120.926 203.224 120.913 203.243C120.887 203.28 120.847 203.335 120.794 203.403C120.689 203.539 120.533 203.727 120.333 203.93C119.93 204.339 119.361 204.797 118.675 205.042C118.395 205.141 118.093 205.106 117.769 204.966C117.443 204.824 117.119 204.585 116.827 204.317C116.536 204.051 116.289 203.767 116.113 203.548C116.025 203.439 115.956 203.347 115.909 203.283C115.886 203.251 115.868 203.226 115.856 203.209C115.85 203.2 115.846 203.194 115.843 203.19L115.84 203.185L115.839 203.184L115.839 203.184C115.839 203.184 115.839 203.184 115.609 203.314C115.378 203.444 115.378 203.444 115.378 203.444L115.378 203.445L115.38 203.446L115.384 203.453C115.387 203.458 115.393 203.465 115.399 203.475C115.413 203.494 115.433 203.522 115.458 203.557C115.509 203.626 115.583 203.725 115.676 203.84C115.861 204.071 116.127 204.376 116.442 204.665C116.756 204.953 117.13 205.236 117.536 205.412C117.945 205.589 118.409 205.667 118.872 205.502C119.669 205.218 120.306 204.698 120.737 204.26C120.94 204.054 121.101 203.863 121.215 203.717L123.376 205.931L123.781 205.602Z" fill="url(#paint9_linear)"/>
<path d="M123.795 201.119C123.795 201.338 123.601 201.515 123.361 201.515C123.122 201.515 122.928 201.338 122.928 201.119C122.928 200.901 123.122 200.724 123.361 200.724C123.601 200.724 123.795 200.901 123.795 201.119Z" fill="#01308D"/>
<path fill-rule="evenodd" clip-rule="evenodd" d="M123.361 201.416C123.541 201.416 123.687 201.283 123.687 201.119C123.687 200.955 123.541 200.823 123.361 200.823C123.182 200.823 123.036 200.955 123.036 201.119C123.036 201.283 123.182 201.416 123.361 201.416ZM123.361 201.515C123.601 201.515 123.795 201.338 123.795 201.119C123.795 200.901 123.601 200.724 123.361 200.724C123.122 200.724 122.928 200.901 122.928 201.119C122.928 201.338 123.122 201.515 123.361 201.515Z" fill="#C3CEFD"/>
<path d="M121.627 203.294C121.627 203.513 121.433 203.69 121.193 203.69C120.954 203.69 120.76 203.513 120.76 203.294C120.76 203.076 120.954 202.899 121.193 202.899C121.433 202.899 121.627 203.076 121.627 203.294Z" fill="#01308D"/>
<path fill-rule="evenodd" clip-rule="evenodd" d="M121.193 203.591C121.373 203.591 121.519 203.458 121.519 203.294C121.519 203.131 121.373 202.998 121.193 202.998C121.014 202.998 120.868 203.131 120.868 203.294C120.868 203.458 121.014 203.591 121.193 203.591ZM121.193 203.69C121.433 203.69 121.627 203.513 121.627 203.294C121.627 203.076 121.433 202.899 121.193 202.899C120.954 202.899 120.76 203.076 120.76 203.294C120.76 203.513 120.954 203.69 121.193 203.69Z" fill="#C3CEFD"/>
<path d="M123.795 205.568C123.795 205.787 123.601 205.964 123.361 205.964C123.122 205.964 122.928 205.787 122.928 205.568C122.928 205.35 123.122 205.173 123.361 205.173C123.601 205.173 123.795 205.35 123.795 205.568Z" fill="#01308D"/>
<path fill-rule="evenodd" clip-rule="evenodd" d="M123.361 205.865C123.541 205.865 123.687 205.732 123.687 205.568C123.687 205.405 123.541 205.272 123.361 205.272C123.182 205.272 123.036 205.405 123.036 205.568C123.036 205.732 123.182 205.865 123.361 205.865ZM123.361 205.964C123.601 205.964 123.795 205.787 123.795 205.568C123.795 205.35 123.601 205.173 123.361 205.173C123.122 205.173 122.928 205.35 122.928 205.568C122.928 205.787 123.122 205.964 123.361 205.964Z" fill="#C3CEFD"/>
<path fill-rule="evenodd" clip-rule="evenodd" d="M119.778 194.009C122.312 194.108 124.361 195.062 126.419 197.115L125.619 197.782C123.715 195.883 121.923 195.083 119.731 194.997C117.618 194.914 115.093 195.491 111.677 196.526L116.279 202.912L115.373 203.455L110 195.999L110.664 195.794C114.406 194.635 117.301 193.911 119.778 194.009Z" fill="url(#paint10_linear)"/>
<path fill-rule="evenodd" clip-rule="evenodd" d="M119.778 212.864C122.312 212.765 124.361 211.811 126.419 209.758L125.619 209.091C123.715 210.99 121.923 211.79 119.731 211.876C117.618 211.96 115.093 211.382 111.677 210.347L116.279 203.961L115.373 203.418L110 210.874L110.664 211.08C114.406 212.238 117.301 212.962 119.778 212.864Z" fill="url(#paint11_linear)"/>
<path d="M111.057 165H112.114V161.097H115.898V160.159H112.114V157.21H116.29V156.273H111.057V165ZM119.89 165.153C121.032 165.153 121.628 164.54 121.833 164.114H121.884V165H122.89V160.688C122.89 158.608 121.304 158.369 120.469 158.369C119.48 158.369 118.355 158.71 117.844 159.903L118.799 160.244C119.02 159.767 119.544 159.256 120.503 159.256C121.428 159.256 121.884 159.746 121.884 160.585V160.619C121.884 161.105 121.39 161.062 120.196 161.216C118.982 161.374 117.657 161.642 117.657 163.142C117.657 164.42 118.645 165.153 119.89 165.153ZM120.043 164.25C119.242 164.25 118.662 163.892 118.662 163.193C118.662 162.426 119.361 162.188 120.145 162.085C120.571 162.034 121.713 161.915 121.884 161.71V162.631C121.884 163.449 121.236 164.25 120.043 164.25ZM129.843 158.455H128.752L126.945 163.67H126.877L125.07 158.455H123.979L126.4 165H127.423L129.843 158.455ZM134.545 165H135.551V158.455H134.545V165ZM135.057 157.364C135.449 157.364 135.773 157.057 135.773 156.682C135.773 156.307 135.449 156 135.057 156C134.665 156 134.341 156.307 134.341 156.682C134.341 157.057 134.665 157.364 135.057 157.364ZM140.052 165.136C141.501 165.136 142.456 164.25 142.626 163.091H141.62C141.433 163.807 140.836 164.233 140.052 164.233C138.859 164.233 138.092 163.244 138.092 161.727C138.092 160.244 138.876 159.273 140.052 159.273C140.939 159.273 141.467 159.818 141.62 160.415H142.626C142.456 159.188 141.416 158.369 140.035 158.369C138.262 158.369 137.086 159.767 137.086 161.761C137.086 163.722 138.211 165.136 140.052 165.136ZM146.755 165.136C148.528 165.136 149.721 163.79 149.721 161.761C149.721 159.716 148.528 158.369 146.755 158.369C144.983 158.369 143.789 159.716 143.789 161.761C143.789 163.79 144.983 165.136 146.755 165.136ZM146.755 164.233C145.409 164.233 144.795 163.074 144.795 161.761C144.795 160.449 145.409 159.273 146.755 159.273C148.102 159.273 148.716 160.449 148.716 161.761C148.716 163.074 148.102 164.233 146.755 164.233ZM152.262 161.062C152.262 159.92 152.969 159.273 153.933 159.273C154.866 159.273 155.433 159.882 155.433 160.909V165H156.438V160.841C156.438 159.17 155.548 158.369 154.222 158.369C153.234 158.369 152.62 158.812 152.313 159.477H152.228V158.455H151.256V165H152.262V161.062Z" fill="black"/>
<path d="M116.057 314H117.114V310.591H119.023C119.099 310.591 119.172 310.591 119.244 310.587L121.085 314H122.312L120.339 310.395C121.452 310.016 121.972 309.108 121.972 307.949C121.972 306.406 121.051 305.273 119.006 305.273H116.057V314ZM117.114 309.636V306.21H118.972C120.386 306.21 120.932 306.901 120.932 307.949C120.932 308.997 120.386 309.636 118.989 309.636H117.114ZM126.27 314.136C127.6 314.136 128.571 313.472 128.878 312.483L127.907 312.21C127.651 312.892 127.059 313.233 126.27 313.233C125.09 313.233 124.276 312.47 124.229 311.068H128.98V310.642C128.98 308.205 127.532 307.369 126.168 307.369C124.395 307.369 123.219 308.767 123.219 310.778C123.219 312.79 124.378 314.136 126.27 314.136ZM124.229 310.199C124.297 309.18 125.017 308.273 126.168 308.273C127.259 308.273 127.958 309.091 127.958 310.199H124.229ZM133.169 314.136C134.618 314.136 135.573 313.25 135.743 312.091H134.738C134.55 312.807 133.953 313.233 133.169 313.233C131.976 313.233 131.209 312.244 131.209 310.727C131.209 309.244 131.993 308.273 133.169 308.273C134.056 308.273 134.584 308.818 134.738 309.415H135.743C135.573 308.188 134.533 307.369 133.152 307.369C131.38 307.369 130.203 308.767 130.203 310.761C130.203 312.722 131.328 314.136 133.169 314.136ZM140.06 307.455H138.662V305.886H137.657V307.455H136.668V308.307H137.657V312.398C137.657 313.54 138.577 314.085 139.429 314.085C139.804 314.085 140.043 314.017 140.179 313.966L139.975 313.062C139.89 313.08 139.753 313.114 139.532 313.114C139.088 313.114 138.662 312.977 138.662 312.125V308.307H140.06V307.455ZM143.499 314.153C144.641 314.153 145.238 313.54 145.442 313.114H145.493V314H146.499V309.688C146.499 307.608 144.914 307.369 144.078 307.369C143.09 307.369 141.965 307.71 141.453 308.903L142.408 309.244C142.63 308.767 143.154 308.256 144.113 308.256C145.037 308.256 145.493 308.746 145.493 309.585V309.619C145.493 310.105 144.999 310.062 143.806 310.216C142.591 310.374 141.266 310.642 141.266 312.142C141.266 313.42 142.255 314.153 143.499 314.153ZM143.652 313.25C142.851 313.25 142.272 312.892 142.272 312.193C142.272 311.426 142.971 311.188 143.755 311.085C144.181 311.034 145.323 310.915 145.493 310.71V311.631C145.493 312.449 144.846 313.25 143.652 313.25ZM149.34 310.062C149.34 308.92 150.048 308.273 151.011 308.273C151.944 308.273 152.511 308.882 152.511 309.909V314H153.516V309.841C153.516 308.17 152.626 307.369 151.3 307.369C150.312 307.369 149.698 307.812 149.391 308.477H149.306V307.455H148.335V314H149.34V310.062ZM157.996 316.591C159.564 316.591 160.826 315.875 160.826 314.188V307.455H159.854V308.494H159.752C159.53 308.153 159.121 307.369 157.843 307.369C156.189 307.369 155.047 308.682 155.047 310.693C155.047 312.739 156.24 313.898 157.826 313.898C159.104 313.898 159.513 313.148 159.735 312.79H159.82V314.119C159.82 315.21 159.053 315.705 157.996 315.705C156.807 315.705 156.39 315.078 156.121 314.716L155.32 315.278C155.729 315.964 156.534 316.591 157.996 316.591ZM157.962 312.994C156.701 312.994 156.053 312.04 156.053 310.676C156.053 309.347 156.684 308.273 157.962 308.273C159.189 308.273 159.837 309.261 159.837 310.676C159.837 312.125 159.172 312.994 157.962 312.994ZM163.672 305.273H162.667V314H163.672V305.273ZM168.259 314.136C169.588 314.136 170.56 313.472 170.866 312.483L169.895 312.21C169.639 312.892 169.047 313.233 168.259 313.233C167.078 313.233 166.264 312.47 166.217 311.068H170.969V310.642C170.969 308.205 169.52 307.369 168.156 307.369C166.384 307.369 165.207 308.767 165.207 310.778C165.207 312.79 166.366 314.136 168.259 314.136ZM166.217 310.199C166.286 309.18 167.006 308.273 168.156 308.273C169.247 308.273 169.946 309.091 169.946 310.199H166.217Z" fill="black"/>
<path d="M119.057 640H120.114V636.591H122.023C122.099 636.591 122.172 636.591 122.244 636.587L124.085 640H125.312L123.339 636.395C124.452 636.016 124.972 635.108 124.972 633.949C124.972 632.406 124.051 631.273 122.006 631.273H119.057V640ZM120.114 635.636V632.21H121.972C123.386 632.21 123.932 632.901 123.932 633.949C123.932 634.997 123.386 635.636 121.989 635.636H120.114ZM129.27 640.136C130.6 640.136 131.571 639.472 131.878 638.483L130.907 638.21C130.651 638.892 130.059 639.233 129.27 639.233C128.09 639.233 127.276 638.47 127.229 637.068H131.98V636.642C131.98 634.205 130.532 633.369 129.168 633.369C127.395 633.369 126.219 634.767 126.219 636.778C126.219 638.79 127.378 640.136 129.27 640.136ZM127.229 636.199C127.297 635.18 128.017 634.273 129.168 634.273C130.259 634.273 130.958 635.091 130.958 636.199H127.229ZM136.169 640.136C137.618 640.136 138.573 639.25 138.743 638.091H137.738C137.55 638.807 136.953 639.233 136.169 639.233C134.976 639.233 134.209 638.244 134.209 636.727C134.209 635.244 134.993 634.273 136.169 634.273C137.056 634.273 137.584 634.818 137.738 635.415H138.743C138.573 634.188 137.533 633.369 136.152 633.369C134.38 633.369 133.203 634.767 133.203 636.761C133.203 638.722 134.328 640.136 136.169 640.136ZM143.06 633.455H141.662V631.886H140.657V633.455H139.668V634.307H140.657V638.398C140.657 639.54 141.577 640.085 142.429 640.085C142.804 640.085 143.043 640.017 143.179 639.966L142.975 639.062C142.89 639.08 142.753 639.114 142.532 639.114C142.088 639.114 141.662 638.977 141.662 638.125V634.307H143.06V633.455ZM146.499 640.153C147.641 640.153 148.238 639.54 148.442 639.114H148.493V640H149.499V635.688C149.499 633.608 147.914 633.369 147.078 633.369C146.09 633.369 144.965 633.71 144.453 634.903L145.408 635.244C145.63 634.767 146.154 634.256 147.113 634.256C148.037 634.256 148.493 634.746 148.493 635.585V635.619C148.493 636.105 147.999 636.062 146.806 636.216C145.591 636.374 144.266 636.642 144.266 638.142C144.266 639.42 145.255 640.153 146.499 640.153ZM146.652 639.25C145.851 639.25 145.272 638.892 145.272 638.193C145.272 637.426 145.971 637.188 146.755 637.085C147.181 637.034 148.323 636.915 148.493 636.71V637.631C148.493 638.449 147.846 639.25 146.652 639.25ZM152.34 636.062C152.34 634.92 153.048 634.273 154.011 634.273C154.944 634.273 155.511 634.882 155.511 635.909V640H156.516V635.841C156.516 634.17 155.626 633.369 154.3 633.369C153.312 633.369 152.698 633.812 152.391 634.477H152.306V633.455H151.335V640H152.34V636.062ZM160.996 642.591C162.564 642.591 163.826 641.875 163.826 640.188V633.455H162.854V634.494H162.752C162.53 634.153 162.121 633.369 160.843 633.369C159.189 633.369 158.047 634.682 158.047 636.693C158.047 638.739 159.24 639.898 160.826 639.898C162.104 639.898 162.513 639.148 162.735 638.79H162.82V640.119C162.82 641.21 162.053 641.705 160.996 641.705C159.807 641.705 159.39 641.078 159.121 640.716L158.32 641.278C158.729 641.964 159.534 642.591 160.996 642.591ZM160.962 638.994C159.701 638.994 159.053 638.04 159.053 636.676C159.053 635.347 159.684 634.273 160.962 634.273C162.189 634.273 162.837 635.261 162.837 636.676C162.837 638.125 162.172 638.994 160.962 638.994ZM166.672 631.273H165.667V640H166.672V631.273ZM171.259 640.136C172.588 640.136 173.56 639.472 173.866 638.483L172.895 638.21C172.639 638.892 172.047 639.233 171.259 639.233C170.078 639.233 169.264 638.47 169.217 637.068H173.969V636.642C173.969 634.205 172.52 633.369 171.156 633.369C169.384 633.369 168.207 634.767 168.207 636.778C168.207 638.79 169.366 640.136 171.259 640.136ZM169.217 636.199C169.286 635.18 170.006 634.273 171.156 634.273C172.247 634.273 172.946 635.091 172.946 636.199H169.217Z" fill="black"/>
<path d="M123.83 925.455H124.852C124.805 924.138 123.591 923.153 121.903 923.153C120.233 923.153 118.92 924.125 118.92 925.591C118.92 926.767 119.773 927.466 121.136 927.858L122.21 928.165C123.131 928.42 123.949 928.744 123.949 929.614C123.949 930.568 123.028 931.199 121.818 931.199C120.778 931.199 119.858 930.739 119.773 929.75H118.682C118.784 931.182 119.943 932.153 121.818 932.153C123.83 932.153 124.972 931.045 124.972 929.631C124.972 927.994 123.42 927.466 122.517 927.227L121.631 926.989C120.983 926.818 119.943 926.477 119.943 925.54C119.943 924.705 120.71 924.091 121.869 924.091C122.926 924.091 123.727 924.594 123.83 925.455ZM132.044 934.455V925.455H131.073V926.494H130.953C130.732 926.153 130.34 925.369 129.061 925.369C127.408 925.369 126.266 926.682 126.266 928.744C126.266 930.824 127.408 932.136 129.044 932.136C130.306 932.136 130.732 931.352 130.953 930.994H131.039V934.455H132.044ZM131.056 928.727C131.056 930.21 130.391 931.233 129.181 931.233C127.919 931.233 127.272 930.125 127.272 928.727C127.272 927.347 127.902 926.273 129.181 926.273C130.408 926.273 131.056 927.261 131.056 928.727ZM138.01 929.324C138.01 930.551 137.073 931.114 136.323 931.114C135.488 931.114 134.891 930.5 134.891 929.545V925.455H133.885V929.614C133.885 931.284 134.772 932.085 135.999 932.085C136.988 932.085 137.635 931.557 137.942 930.892H138.01V932H139.016V925.455H138.01V929.324ZM142.784 932.153C143.926 932.153 144.523 931.54 144.727 931.114H144.778V932H145.784V927.688C145.784 925.608 144.199 925.369 143.364 925.369C142.375 925.369 141.25 925.71 140.739 926.903L141.693 927.244C141.915 926.767 142.439 926.256 143.398 926.256C144.322 926.256 144.778 926.746 144.778 927.585V927.619C144.778 928.105 144.284 928.062 143.091 928.216C141.876 928.374 140.551 928.642 140.551 930.142C140.551 931.42 141.54 932.153 142.784 932.153ZM142.938 931.25C142.136 931.25 141.557 930.892 141.557 930.193C141.557 929.426 142.256 929.188 143.04 929.085C143.466 929.034 144.608 928.915 144.778 928.71V929.631C144.778 930.449 144.131 931.25 142.938 931.25ZM147.62 932H148.625V927.858C148.625 926.972 149.324 926.324 150.279 926.324C150.547 926.324 150.824 926.375 150.892 926.392V925.369C150.777 925.361 150.513 925.352 150.364 925.352C149.58 925.352 148.898 925.795 148.659 926.443H148.591V925.455H147.62V932ZM154.63 932.136C155.959 932.136 156.931 931.472 157.238 930.483L156.266 930.21C156.01 930.892 155.418 931.233 154.63 931.233C153.449 931.233 152.635 930.47 152.588 929.068H157.34V928.642C157.34 926.205 155.891 925.369 154.527 925.369C152.755 925.369 151.578 926.767 151.578 928.778C151.578 930.79 152.738 932.136 154.63 932.136ZM152.588 928.199C152.657 927.18 153.377 926.273 154.527 926.273C155.618 926.273 156.317 927.091 156.317 928.199H152.588Z" fill="black"/>
<path d="M119.057 1340H124.17V1339.06H120.114V1331.27H119.057V1340ZM128.415 1340.14C129.744 1340.14 130.716 1339.47 131.023 1338.48L130.051 1338.21C129.795 1338.89 129.203 1339.23 128.415 1339.23C127.234 1339.23 126.42 1338.47 126.374 1337.07H131.125V1336.64C131.125 1334.2 129.676 1333.37 128.312 1333.37C126.54 1333.37 125.364 1334.77 125.364 1336.78C125.364 1338.79 126.523 1340.14 128.415 1340.14ZM126.374 1336.2C126.442 1335.18 127.162 1334.27 128.312 1334.27C129.403 1334.27 130.102 1335.09 130.102 1336.2H126.374ZM135.57 1333.45H134.104V1332.79C134.104 1332.14 134.376 1331.8 135.041 1331.8C135.331 1331.8 135.501 1331.87 135.604 1331.9L135.893 1331.03C135.74 1330.97 135.433 1330.86 134.939 1330.86C134.001 1330.86 133.098 1331.43 133.098 1332.55V1333.45H132.041V1334.31H133.098V1340H134.104V1334.31H135.57V1333.45ZM139.826 1333.45H138.428V1331.89H137.422V1333.45H136.434V1334.31H137.422V1338.4C137.422 1339.54 138.343 1340.09 139.195 1340.09C139.57 1340.09 139.809 1340.02 139.945 1339.97L139.74 1339.06C139.655 1339.08 139.519 1339.11 139.297 1339.11C138.854 1339.11 138.428 1338.98 138.428 1338.12V1334.31H139.826V1333.45ZM146.64 1340.15C147.782 1340.15 148.378 1339.54 148.583 1339.11H148.634V1340H149.64V1335.69C149.64 1333.61 148.054 1333.37 147.219 1333.37C146.23 1333.37 145.105 1333.71 144.594 1334.9L145.549 1335.24C145.77 1334.77 146.294 1334.26 147.253 1334.26C148.178 1334.26 148.634 1334.75 148.634 1335.59V1335.62C148.634 1336.11 148.14 1336.06 146.946 1336.22C145.732 1336.37 144.407 1336.64 144.407 1338.14C144.407 1339.42 145.395 1340.15 146.64 1340.15ZM146.793 1339.25C145.992 1339.25 145.412 1338.89 145.412 1338.19C145.412 1337.43 146.111 1337.19 146.895 1337.09C147.321 1337.03 148.463 1336.91 148.634 1336.71V1337.63C148.634 1338.45 147.986 1339.25 146.793 1339.25ZM152.481 1331.27H151.475V1340H152.481V1331.27ZM154.323 1340H155.328V1333.45H154.323V1340ZM154.834 1332.36C155.226 1332.36 155.55 1332.06 155.55 1331.68C155.55 1331.31 155.226 1331 154.834 1331C154.442 1331 154.118 1331.31 154.118 1331.68C154.118 1332.06 154.442 1332.36 154.834 1332.36ZM159.812 1342.59C161.381 1342.59 162.642 1341.88 162.642 1340.19V1333.45H161.67V1334.49H161.568C161.347 1334.15 160.938 1333.37 159.659 1333.37C158.006 1333.37 156.864 1334.68 156.864 1336.69C156.864 1338.74 158.057 1339.9 159.642 1339.9C160.92 1339.9 161.33 1339.15 161.551 1338.79H161.636V1340.12C161.636 1341.21 160.869 1341.7 159.812 1341.7C158.624 1341.7 158.206 1341.08 157.938 1340.72L157.136 1341.28C157.545 1341.96 158.351 1342.59 159.812 1342.59ZM159.778 1338.99C158.517 1338.99 157.869 1338.04 157.869 1336.68C157.869 1335.35 158.5 1334.27 159.778 1334.27C161.006 1334.27 161.653 1335.26 161.653 1336.68C161.653 1338.12 160.989 1338.99 159.778 1338.99ZM165.489 1336.06C165.489 1334.92 166.196 1334.27 167.159 1334.27C168.092 1334.27 168.659 1334.88 168.659 1335.91V1340H169.665V1335.84C169.665 1334.17 168.774 1333.37 167.449 1333.37C166.46 1333.37 165.847 1333.81 165.54 1334.48H165.455V1333.45H164.483V1340H165.489V1336.06ZM174.247 1340.14C175.576 1340.14 176.548 1339.47 176.855 1338.48L175.883 1338.21C175.627 1338.89 175.035 1339.23 174.247 1339.23C173.066 1339.23 172.252 1338.47 172.206 1337.07H176.957V1336.64C176.957 1334.2 175.508 1333.37 174.145 1333.37C172.372 1333.37 171.196 1334.77 171.196 1336.78C171.196 1338.79 172.355 1340.14 174.247 1340.14ZM172.206 1336.2C172.274 1335.18 172.994 1334.27 174.145 1334.27C175.235 1334.27 175.934 1335.09 175.934 1336.2H172.206ZM180.958 1340.14C182.22 1340.14 182.646 1339.35 182.868 1338.99H182.987V1340H183.958V1331.27H182.953V1334.49H182.868C182.646 1334.15 182.254 1333.37 180.975 1333.37C179.322 1333.37 178.18 1334.68 178.18 1336.74C178.18 1338.82 179.322 1340.14 180.958 1340.14ZM181.095 1339.23C179.833 1339.23 179.186 1338.12 179.186 1336.73C179.186 1335.35 179.816 1334.27 181.095 1334.27C182.322 1334.27 182.97 1335.26 182.97 1336.73C182.97 1338.21 182.305 1339.23 181.095 1339.23Z" fill="black"/>
<path d="M118.58 1685.21H121.324V1693H122.381V1685.21H125.125V1684.27H118.58V1685.21ZM125.94 1693H126.946V1688.86C126.946 1687.97 127.645 1687.32 128.599 1687.32C128.868 1687.32 129.145 1687.38 129.213 1687.39V1686.37C129.098 1686.36 128.833 1686.35 128.684 1686.35C127.9 1686.35 127.218 1686.8 126.98 1687.44H126.912V1686.45H125.94V1693ZM130.405 1693H131.411V1686.45H130.405V1693ZM130.916 1685.36C131.308 1685.36 131.632 1685.06 131.632 1684.68C131.632 1684.31 131.308 1684 130.916 1684C130.524 1684 130.2 1684.31 130.2 1684.68C130.2 1685.06 130.524 1685.36 130.916 1685.36ZM135.179 1693.15C136.321 1693.15 136.917 1692.54 137.122 1692.11H137.173V1693H138.179V1688.69C138.179 1686.61 136.593 1686.37 135.758 1686.37C134.77 1686.37 133.645 1686.71 133.133 1687.9L134.088 1688.24C134.309 1687.77 134.833 1687.26 135.792 1687.26C136.717 1687.26 137.173 1687.75 137.173 1688.59V1688.62C137.173 1689.11 136.679 1689.06 135.485 1689.22C134.271 1689.37 132.946 1689.64 132.946 1691.14C132.946 1692.42 133.934 1693.15 135.179 1693.15ZM135.332 1692.25C134.531 1692.25 133.951 1691.89 133.951 1691.19C133.951 1690.43 134.65 1690.19 135.434 1690.09C135.86 1690.03 137.002 1689.91 137.173 1689.71V1690.63C137.173 1691.45 136.525 1692.25 135.332 1692.25ZM141.02 1689.06C141.02 1687.92 141.727 1687.27 142.69 1687.27C143.624 1687.27 144.19 1687.88 144.19 1688.91V1693H145.196V1688.84C145.196 1687.17 144.305 1686.37 142.98 1686.37C141.991 1686.37 141.378 1686.81 141.071 1687.48H140.986V1686.45H140.014V1693H141.02V1689.06ZM149.676 1695.59C151.244 1695.59 152.505 1694.88 152.505 1693.19V1686.45H151.534V1687.49H151.431C151.21 1687.15 150.801 1686.37 149.522 1686.37C147.869 1686.37 146.727 1687.68 146.727 1689.69C146.727 1691.74 147.92 1692.9 149.505 1692.9C150.784 1692.9 151.193 1692.15 151.414 1691.79H151.5V1693.12C151.5 1694.21 150.733 1694.7 149.676 1694.7C148.487 1694.7 148.069 1694.08 147.801 1693.72L147 1694.28C147.409 1694.96 148.214 1695.59 149.676 1695.59ZM149.642 1691.99C148.38 1691.99 147.733 1691.04 147.733 1689.68C147.733 1688.35 148.363 1687.27 149.642 1687.27C150.869 1687.27 151.517 1688.26 151.517 1689.68C151.517 1691.12 150.852 1691.99 149.642 1691.99ZM155.352 1684.27H154.346V1693H155.352V1684.27ZM159.938 1693.14C161.268 1693.14 162.239 1692.47 162.546 1691.48L161.575 1691.21C161.319 1691.89 160.727 1692.23 159.938 1692.23C158.758 1692.23 157.944 1691.47 157.897 1690.07H162.648V1689.64C162.648 1687.2 161.2 1686.37 159.836 1686.37C158.063 1686.37 156.887 1687.77 156.887 1689.78C156.887 1691.79 158.046 1693.14 159.938 1693.14ZM157.897 1689.2C157.965 1688.18 158.685 1687.27 159.836 1687.27C160.927 1687.27 161.626 1688.09 161.626 1689.2H157.897Z" fill="black"/>
<path d="M288.311 812V749.011H306.092C311.572 749.011 316.417 750.222 320.628 752.645C324.839 755.068 328.083 758.514 330.362 762.984C332.669 767.455 333.837 772.589 333.866 778.386V782.409C333.866 788.35 332.712 793.556 330.405 798.026C328.126 802.497 324.853 805.929 320.584 808.323C316.345 810.717 311.399 811.942 305.746 812H288.311ZM296.617 755.846V805.208H305.356C311.759 805.208 316.734 803.218 320.282 799.238C323.858 795.258 325.646 789.59 325.646 782.236V778.559C325.646 771.406 323.959 765.854 320.584 761.903C317.239 757.923 312.48 755.904 306.308 755.846H296.617ZM380.286 795.561H353.896L347.969 812H339.403L363.457 749.011H370.725L394.822 812H386.299L380.286 795.561ZM356.405 788.725H377.82L367.091 759.264L356.405 788.725ZM414.03 749.011L434.622 800.406L455.215 749.011H465.987V812H457.681V787.471L458.46 760.994L437.78 812H431.421L410.785 761.124L411.607 787.471V812H403.301V749.011H414.03Z" fill="#01308D"/>
<path d="M509.506 796.039C509.506 799.383 508.943 802.305 507.818 804.805C506.693 807.289 505.099 809.188 503.037 810.5C500.974 811.812 498.568 812.469 495.818 812.469C493.131 812.469 490.748 811.812 488.67 810.5C486.592 809.172 484.974 807.289 483.818 804.852C482.678 802.398 482.092 799.562 482.06 796.344V793.883C482.06 790.602 482.631 787.703 483.771 785.188C484.912 782.672 486.521 780.75 488.599 779.422C490.693 778.078 493.084 777.406 495.771 777.406C498.506 777.406 500.912 778.07 502.99 779.398C505.084 780.711 506.693 782.625 507.818 785.141C508.943 787.641 509.506 790.555 509.506 793.883V796.039ZM505.029 793.836C505.029 789.789 504.217 786.688 502.592 784.531C500.967 782.359 498.693 781.273 495.771 781.273C492.928 781.273 490.685 782.359 489.045 784.531C487.42 786.688 486.584 789.688 486.537 793.531V796.039C486.537 799.961 487.357 803.047 488.998 805.297C490.654 807.531 492.928 808.648 495.818 808.648C498.724 808.648 500.974 807.594 502.568 805.484C504.162 803.359 504.982 800.32 505.029 796.367V793.836ZM519.678 786.641L519.818 789.828C521.756 787.391 524.287 786.172 527.412 786.172C532.771 786.172 535.474 789.195 535.521 795.242V812H531.185V795.219C531.17 793.391 530.748 792.039 529.92 791.164C529.107 790.289 527.834 789.852 526.099 789.852C524.693 789.852 523.459 790.227 522.396 790.977C521.334 791.727 520.506 792.711 519.912 793.93V812H515.576V786.641H519.678ZM547.943 780.5V786.641H552.678V789.992H547.943V805.719C547.943 806.734 548.154 807.5 548.576 808.016C548.998 808.516 549.717 808.766 550.732 808.766C551.232 808.766 551.92 808.672 552.795 808.484V812C551.654 812.312 550.545 812.469 549.467 812.469C547.529 812.469 546.068 811.883 545.084 810.711C544.099 809.539 543.607 807.875 543.607 805.719V789.992H538.99V786.641H543.607V780.5H547.943ZM556.146 799.086C556.146 796.602 556.631 794.367 557.599 792.383C558.584 790.398 559.943 788.867 561.678 787.789C563.428 786.711 565.42 786.172 567.654 786.172C571.107 786.172 573.896 787.367 576.021 789.758C578.162 792.148 579.232 795.328 579.232 799.297V799.602C579.232 802.07 578.756 804.289 577.803 806.258C576.865 808.211 575.513 809.734 573.748 810.828C571.998 811.922 569.982 812.469 567.701 812.469C564.263 812.469 561.474 811.273 559.334 808.883C557.209 806.492 556.146 803.328 556.146 799.391V799.086ZM560.506 799.602C560.506 802.414 561.154 804.672 562.451 806.375C563.763 808.078 565.513 808.93 567.701 808.93C569.904 808.93 571.654 808.07 572.951 806.352C574.248 804.617 574.896 802.195 574.896 799.086C574.896 796.305 574.232 794.055 572.904 792.336C571.592 790.602 569.842 789.734 567.654 789.734C565.513 789.734 563.787 790.586 562.474 792.289C561.162 793.992 560.506 796.43 560.506 799.602ZM589.381 812H585.045V776H589.381V812ZM595.193 799.086C595.193 796.602 595.678 794.367 596.646 792.383C597.631 790.398 598.99 788.867 600.724 787.789C602.474 786.711 604.467 786.172 606.701 786.172C610.154 786.172 612.943 787.367 615.068 789.758C617.209 792.148 618.279 795.328 618.279 799.297V799.602C618.279 802.07 617.803 804.289 616.849 806.258C615.912 808.211 614.56 809.734 612.795 810.828C611.045 811.922 609.029 812.469 606.748 812.469C603.31 812.469 600.521 811.273 598.381 808.883C596.256 806.492 595.193 803.328 595.193 799.391V799.086ZM599.553 799.602C599.553 802.414 600.201 804.672 601.498 806.375C602.81 808.078 604.56 808.93 606.748 808.93C608.951 808.93 610.701 808.07 611.998 806.352C613.295 804.617 613.943 802.195 613.943 799.086C613.943 796.305 613.279 794.055 611.951 792.336C610.638 790.602 608.888 789.734 606.701 789.734C604.56 789.734 602.834 790.586 601.521 792.289C600.209 793.992 599.553 796.43 599.553 799.602ZM622.685 799.109C622.685 795.156 623.599 792.016 625.428 789.688C627.256 787.344 629.678 786.172 632.693 786.172C635.787 786.172 638.201 787.266 639.935 789.453L640.146 786.641H644.107V811.391C644.107 814.672 643.131 817.258 641.178 819.148C639.24 821.039 636.631 821.984 633.349 821.984C631.521 821.984 629.732 821.594 627.982 820.812C626.232 820.031 624.896 818.961 623.974 817.602L626.224 815C628.084 817.297 630.357 818.445 633.045 818.445C635.154 818.445 636.795 817.852 637.967 816.664C639.154 815.477 639.748 813.805 639.748 811.648V809.469C638.013 811.469 635.646 812.469 632.646 812.469C629.678 812.469 627.271 811.273 625.428 808.883C623.599 806.492 622.685 803.234 622.685 799.109ZM627.045 799.602C627.045 802.461 627.631 804.711 628.803 806.352C629.974 807.977 631.615 808.789 633.724 808.789C636.459 808.789 638.467 807.547 639.748 805.062V793.484C638.42 791.062 636.428 789.852 633.771 789.852C631.662 789.852 630.013 790.672 628.826 792.312C627.638 793.953 627.045 796.383 627.045 799.602ZM658.967 805.648L664.873 786.641H669.513L659.318 815.914C657.74 820.133 655.232 822.242 651.795 822.242L650.974 822.172L649.357 821.867V818.352L650.529 818.445C651.998 818.445 653.138 818.148 653.951 817.555C654.779 816.961 655.459 815.875 655.99 814.297L656.951 811.719L647.904 786.641H652.638L658.967 805.648Z" fill="#3380C4"/>
<path d="M333.111 984.226H314.71V996.32H336.086V1000H309.111V965.875H335.794V969.578H314.71V980.546H333.111V984.226Z" fill="#01308D"/>
<path d="M309.111 1056V1021.87H321.096C324.79 1021.87 328.056 1022.53 330.895 1023.84C333.733 1025.16 335.92 1027.02 337.456 1029.44C339.011 1031.87 339.799 1034.65 339.818 1037.79V1039.97C339.818 1043.19 339.041 1046.01 337.485 1048.43C335.949 1050.85 333.743 1052.71 330.866 1054.01C328.008 1055.3 324.674 1055.97 320.863 1056H309.111ZM314.71 1025.58V1052.32H320.601C324.917 1052.32 328.27 1051.24 330.661 1049.09C333.072 1046.93 334.278 1043.86 334.278 1039.87V1037.88C334.278 1034.01 333.14 1031 330.866 1028.86C328.61 1026.7 325.403 1025.61 321.242 1025.58H314.71Z" fill="#01308D"/>
<path d="M332.557 1103.09H314.768L310.773 1112H304.999L321.213 1077.87H326.112L342.355 1112H336.61L332.557 1103.09ZM316.46 1099.39H330.895L323.663 1083.43L316.46 1099.39Z" fill="#01308D"/>
<path d="M316.343 1133.87L330.224 1161.72L344.105 1133.87H351.366V1168H345.767V1154.71L346.292 1140.37L332.353 1168H328.066L314.156 1140.44L314.71 1154.71V1168H309.111V1133.87H316.343Z" fill="#01308D"/>
<path fill-rule="evenodd" clip-rule="evenodd" d="M251.137 1032.66L220.827 1060.02L218.66 1057.07L218.659 1057.07L218.659 1057.07L218.658 1057.07L218.641 1057.05C218.625 1057.03 218.599 1056.99 218.563 1056.95C218.491 1056.85 218.379 1056.71 218.228 1056.52C217.927 1056.14 217.47 1055.59 216.867 1054.9C215.659 1053.52 213.873 1051.63 211.577 1049.57C206.948 1045.43 200.419 1040.8 192.544 1038.33C189.409 1037.34 185.983 1037.76 182.259 1039.32C178.507 1040.9 174.782 1043.52 171.418 1046.44C168.079 1049.35 165.23 1052.43 163.208 1054.8C162.2 1055.98 161.405 1056.98 160.865 1057.68C160.595 1058.03 160.389 1058.3 160.253 1058.48C160.184 1058.57 160.133 1058.64 160.101 1058.69L160.065 1058.74L160.057 1058.75L160.056 1058.75C160.056 1058.75 160.056 1058.75 157.363 1057.5C154.669 1056.25 154.669 1056.25 154.67 1056.25L154.675 1056.24L154.689 1056.22L154.737 1056.16C154.778 1056.1 154.837 1056.02 154.914 1055.92C155.069 1055.71 155.294 1055.41 155.584 1055.04C156.165 1054.29 157.01 1053.23 158.076 1051.98C160.202 1049.48 163.239 1046.19 166.85 1043.05C170.436 1039.93 174.724 1036.84 179.377 1034.89C184.058 1032.92 189.427 1031.98 194.806 1033.67C203.957 1036.54 211.258 1041.81 216.204 1046.23C218.536 1048.32 220.382 1050.25 221.69 1051.72L246.491 1029.34L251.137 1032.66Z" fill="url(#paint12_linear)"/>
<path fill-rule="evenodd" clip-rule="evenodd" d="M251.137 1078.34L220.826 1050.98L218.66 1053.93L218.659 1053.93L218.659 1053.93L218.658 1053.93L218.641 1053.95C218.625 1053.97 218.599 1054.01 218.563 1054.05C218.491 1054.15 218.379 1054.29 218.228 1054.48C217.926 1054.86 217.47 1055.41 216.867 1056.1C215.659 1057.48 213.873 1059.37 211.577 1061.43C206.948 1065.57 200.419 1070.2 192.544 1072.67C189.341 1073.68 185.868 1073.32 182.154 1071.9C178.408 1070.47 174.693 1068.05 171.34 1065.34C168.01 1062.65 165.168 1059.78 163.151 1057.57C162.145 1056.46 161.353 1055.53 160.814 1054.88C160.545 1054.56 160.34 1054.3 160.204 1054.13C160.137 1054.05 160.086 1053.98 160.053 1053.94L160.018 1053.9L160.011 1053.89L160.01 1053.89C160.01 1053.89 160.011 1053.89 157.363 1055.2C154.715 1056.51 154.715 1056.51 154.716 1056.51L154.722 1056.52L154.735 1056.54L154.784 1056.6C154.825 1056.65 154.885 1056.73 154.962 1056.83C155.118 1057.02 155.343 1057.3 155.635 1057.65C156.218 1058.36 157.065 1059.35 158.134 1060.52C160.264 1062.86 163.308 1065.94 166.928 1068.87C170.525 1071.77 174.823 1074.64 179.482 1076.42C184.172 1078.21 189.496 1078.99 194.806 1077.33C203.957 1074.46 211.258 1069.19 216.204 1064.77C218.536 1062.68 220.382 1060.75 221.69 1059.28L246.491 1081.66L251.137 1078.34Z" fill="url(#paint13_linear)"/>
<path d="M251.303 1033C251.303 1035.21 249.074 1037 246.326 1037C243.577 1037 241.349 1035.21 241.349 1033C241.349 1030.79 243.577 1029 246.326 1029C249.074 1029 251.303 1030.79 251.303 1033Z" fill="#01308D"/>
<path fill-rule="evenodd" clip-rule="evenodd" d="M246.326 1036C248.387 1036 250.058 1034.66 250.058 1033C250.058 1031.34 248.387 1030 246.326 1030C244.264 1030 242.593 1031.34 242.593 1033C242.593 1034.66 244.264 1036 246.326 1036ZM246.326 1037C249.074 1037 251.303 1035.21 251.303 1033C251.303 1030.79 249.074 1029 246.326 1029C243.577 1029 241.349 1030.79 241.349 1033C241.349 1035.21 243.577 1037 246.326 1037Z" fill="#C3CEFD"/>
<path d="M226.418 1055C226.418 1057.21 224.19 1059 221.441 1059C218.692 1059 216.464 1057.21 216.464 1055C216.464 1052.79 218.692 1051 221.441 1051C224.19 1051 226.418 1052.79 226.418 1055Z" fill="#01308D"/>
<path fill-rule="evenodd" clip-rule="evenodd" d="M221.441 1058C223.502 1058 225.174 1056.66 225.174 1055C225.174 1053.34 223.502 1052 221.441 1052C219.379 1052 217.708 1053.34 217.708 1055C217.708 1056.66 219.379 1058 221.441 1058ZM221.441 1059C224.19 1059 226.418 1057.21 226.418 1055C226.418 1052.79 224.19 1051 221.441 1051C218.692 1051 216.464 1052.79 216.464 1055C216.464 1057.21 218.692 1059 221.441 1059Z" fill="#C3CEFD"/>
<path d="M251.303 1078C251.303 1080.21 249.074 1082 246.326 1082C243.577 1082 241.349 1080.21 241.349 1078C241.349 1075.79 243.577 1074 246.326 1074C249.074 1074 251.303 1075.79 251.303 1078Z" fill="#01308D"/>
<path fill-rule="evenodd" clip-rule="evenodd" d="M246.326 1081C248.387 1081 250.058 1079.66 250.058 1078C250.058 1076.34 248.387 1075 246.326 1075C244.264 1075 242.593 1076.34 242.593 1078C242.593 1079.66 244.264 1081 246.326 1081ZM246.326 1082C249.074 1082 251.303 1080.21 251.303 1078C251.303 1075.79 249.074 1074 246.326 1074C243.577 1074 241.349 1075.79 241.349 1078C241.349 1080.21 243.577 1082 246.326 1082Z" fill="#C3CEFD"/>
<path fill-rule="evenodd" clip-rule="evenodd" d="M205.2 961.088C234.277 962.096 257.788 971.742 281.401 992.499L272.218 999.247C250.372 980.043 229.808 971.95 204.664 971.079C180.417 970.239 151.44 976.075 112.247 986.547L165.05 1051.13L154.652 1056.62L93 981.217L100.616 979.139C143.556 967.423 176.776 960.104 205.2 961.088Z" fill="url(#paint14_linear)"/>
<path fill-rule="evenodd" clip-rule="evenodd" d="M205.2 1151.78C234.277 1150.78 257.788 1141.13 281.401 1120.37L272.218 1113.63C250.372 1132.83 229.808 1140.92 204.664 1141.79C180.417 1142.63 151.44 1136.8 112.247 1126.33L165.05 1061.75L154.652 1056.25L93 1131.66L100.616 1133.73C143.556 1145.45 176.776 1152.77 205.2 1151.78Z" fill="url(#paint15_linear)"/>
<path d="M125.799 1208.39C125.799 1213.13 125.002 1217.26 123.408 1220.81C121.814 1224.33 119.557 1227.02 116.635 1228.88C113.713 1230.73 110.304 1231.66 106.408 1231.66C102.601 1231.66 99.2253 1230.73 96.2812 1228.88C93.3372 1226.99 91.0462 1224.33 89.4082 1220.87C87.7923 1217.4 86.9622 1213.38 86.918 1208.82V1205.33C86.918 1200.69 87.7259 1196.58 89.3418 1193.02C90.9577 1189.45 93.2376 1186.73 96.1816 1184.85C99.1478 1182.94 102.535 1181.99 106.342 1181.99C110.215 1181.99 113.624 1182.93 116.568 1184.81C119.535 1186.67 121.814 1189.39 123.408 1192.95C125.002 1196.49 125.799 1200.62 125.799 1205.33V1208.39ZM119.457 1205.27C119.457 1199.53 118.306 1195.14 116.004 1192.09C113.702 1189.01 110.481 1187.47 106.342 1187.47C102.313 1187.47 99.1367 1189.01 96.8125 1192.09C94.5104 1195.14 93.3262 1199.39 93.2598 1204.84V1208.39C93.2598 1213.94 94.4219 1218.32 96.7461 1221.5C99.0924 1224.67 102.313 1226.25 106.408 1226.25C110.525 1226.25 113.713 1224.76 115.971 1221.77C118.229 1218.76 119.391 1214.45 119.457 1208.85V1205.27ZM140.209 1195.07L140.408 1199.59C143.153 1196.14 146.739 1194.41 151.166 1194.41C158.758 1194.41 162.588 1198.69 162.654 1207.26V1231H156.512V1207.23C156.49 1204.64 155.892 1202.72 154.719 1201.48C153.568 1200.24 151.764 1199.62 149.307 1199.62C147.314 1199.62 145.566 1200.15 144.061 1201.22C142.555 1202.28 141.382 1203.67 140.541 1205.4V1231H134.398V1195.07H140.209ZM180.252 1186.38V1195.07H186.959V1199.82H180.252V1222.1C180.252 1223.54 180.551 1224.62 181.148 1225.36C181.746 1226.06 182.764 1226.42 184.203 1226.42C184.911 1226.42 185.885 1226.29 187.125 1226.02V1231C185.509 1231.44 183.938 1231.66 182.41 1231.66C179.665 1231.66 177.596 1230.83 176.201 1229.17C174.807 1227.51 174.109 1225.16 174.109 1222.1V1199.82H167.568V1195.07H174.109V1186.38H180.252ZM191.873 1212.71C191.873 1209.19 192.559 1206.02 193.932 1203.21C195.326 1200.4 197.252 1198.23 199.709 1196.7C202.188 1195.17 205.01 1194.41 208.176 1194.41C213.068 1194.41 217.019 1196.1 220.029 1199.49C223.062 1202.88 224.578 1207.38 224.578 1213V1213.44C224.578 1216.93 223.903 1220.08 222.553 1222.87C221.225 1225.63 219.31 1227.79 216.809 1229.34C214.329 1230.89 211.474 1231.66 208.242 1231.66C203.372 1231.66 199.421 1229.97 196.389 1226.58C193.378 1223.2 191.873 1218.71 191.873 1213.14V1212.71ZM198.049 1213.44C198.049 1217.42 198.967 1220.62 200.805 1223.03C202.664 1225.44 205.143 1226.65 208.242 1226.65C211.363 1226.65 213.842 1225.43 215.68 1223C217.517 1220.54 218.436 1217.11 218.436 1212.71C218.436 1208.76 217.495 1205.58 215.613 1203.14C213.754 1200.69 211.275 1199.46 208.176 1199.46C205.143 1199.46 202.697 1200.66 200.838 1203.08C198.979 1205.49 198.049 1208.94 198.049 1213.44ZM238.955 1231H232.812V1180H238.955V1231ZM247.189 1212.71C247.189 1209.19 247.876 1206.02 249.248 1203.21C250.643 1200.4 252.568 1198.23 255.025 1196.7C257.505 1195.17 260.327 1194.41 263.492 1194.41C268.384 1194.41 272.335 1196.1 275.346 1199.49C278.378 1202.88 279.895 1207.38 279.895 1213V1213.44C279.895 1216.93 279.219 1220.08 277.869 1222.87C276.541 1225.63 274.626 1227.79 272.125 1229.34C269.646 1230.89 266.79 1231.66 263.559 1231.66C258.689 1231.66 254.738 1229.97 251.705 1226.58C248.695 1223.2 247.189 1218.71 247.189 1213.14V1212.71ZM253.365 1213.44C253.365 1217.42 254.284 1220.62 256.121 1223.03C257.98 1225.44 260.46 1226.65 263.559 1226.65C266.68 1226.65 269.159 1225.43 270.996 1223C272.833 1220.54 273.752 1217.11 273.752 1212.71C273.752 1208.76 272.811 1205.58 270.93 1203.14C269.07 1200.69 266.591 1199.46 263.492 1199.46C260.46 1199.46 258.014 1200.66 256.154 1203.08C254.295 1205.49 253.365 1208.94 253.365 1213.44ZM286.137 1212.74C286.137 1207.14 287.432 1202.69 290.021 1199.39C292.611 1196.07 296.042 1194.41 300.314 1194.41C304.697 1194.41 308.117 1195.96 310.574 1199.06L310.873 1195.07H316.484V1230.14C316.484 1234.79 315.101 1238.45 312.334 1241.13C309.589 1243.81 305.893 1245.14 301.244 1245.14C298.654 1245.14 296.12 1244.59 293.641 1243.48C291.161 1242.38 289.269 1240.86 287.963 1238.94L291.15 1235.25C293.785 1238.5 297.005 1240.13 300.812 1240.13C303.801 1240.13 306.125 1239.29 307.785 1237.61C309.467 1235.93 310.309 1233.56 310.309 1230.5V1227.41C307.852 1230.25 304.498 1231.66 300.248 1231.66C296.042 1231.66 292.633 1229.97 290.021 1226.58C287.432 1223.2 286.137 1218.58 286.137 1212.74ZM292.312 1213.44C292.312 1217.49 293.143 1220.67 294.803 1223C296.463 1225.3 298.787 1226.45 301.775 1226.45C305.649 1226.45 308.493 1224.69 310.309 1221.17V1204.77C308.427 1201.34 305.605 1199.62 301.842 1199.62C298.854 1199.62 296.518 1200.79 294.836 1203.11C293.154 1205.43 292.312 1208.88 292.312 1213.44ZM337.535 1222L345.902 1195.07H352.477L338.033 1236.54C335.798 1242.52 332.245 1245.51 327.375 1245.51L326.213 1245.41L323.922 1244.98V1240L325.582 1240.13C327.663 1240.13 329.279 1239.71 330.43 1238.87C331.603 1238.03 332.566 1236.49 333.318 1234.25L334.68 1230.6L321.863 1195.07H328.57L337.535 1222Z" fill="#3380C4"/>
<path d="M336.979 401.52H310.277V423.356H341.296V430H302.152V368.385H340.872V375.072H310.277V394.876H336.979V401.52ZM351.41 430V368.385H368.802C374.162 368.385 378.902 369.57 383.021 371.94C387.14 374.31 390.314 377.681 392.542 382.054C394.799 386.427 395.942 391.449 395.97 397.119V401.055C395.97 406.866 394.842 411.959 392.585 416.331C390.356 420.704 387.154 424.061 382.979 426.403C378.831 428.745 373.993 429.944 368.464 430H351.41ZM359.535 375.072V423.356H368.083C374.346 423.356 379.212 421.41 382.682 417.516C386.181 413.623 387.93 408.079 387.93 400.885V397.288C387.93 390.292 386.279 384.861 382.979 380.996C379.706 377.103 375.051 375.128 369.014 375.072H359.535ZM441.377 413.919H415.563L409.766 430H401.387L424.915 368.385H432.025L455.596 430H447.259L441.377 413.919ZM418.018 407.233H438.965L428.47 378.415L418.018 407.233ZM474.385 368.385L494.528 418.659L514.671 368.385H525.208V430H517.083V406.006L517.845 380.107L497.617 430H491.397L471.211 380.234L472.015 406.006V430H463.89V368.385H474.385Z" fill="#01308D"/>
<path d="M331.747 493.18C331.747 496.524 331.185 499.446 330.06 501.946C328.935 504.43 327.341 506.329 325.278 507.641C323.216 508.954 320.81 509.61 318.06 509.61C315.372 509.61 312.989 508.954 310.911 507.641C308.833 506.313 307.216 504.43 306.06 501.993C304.919 499.54 304.333 496.704 304.302 493.485V491.024C304.302 487.743 304.872 484.844 306.013 482.329C307.153 479.813 308.763 477.891 310.841 476.563C312.935 475.219 315.325 474.547 318.013 474.547C320.747 474.547 323.153 475.211 325.231 476.54C327.325 477.852 328.935 479.766 330.06 482.282C331.185 484.782 331.747 487.696 331.747 491.024V493.18ZM327.271 490.977C327.271 486.93 326.458 483.829 324.833 481.672C323.208 479.5 320.935 478.415 318.013 478.415C315.169 478.415 312.927 479.5 311.286 481.672C309.661 483.829 308.825 486.829 308.778 490.672V493.18C308.778 497.102 309.599 500.188 311.239 502.438C312.896 504.672 315.169 505.79 318.06 505.79C320.966 505.79 323.216 504.735 324.81 502.625C326.403 500.5 327.224 497.461 327.271 493.508V490.977ZM341.919 483.782L342.06 486.969C343.997 484.532 346.528 483.313 349.653 483.313C355.013 483.313 357.716 486.336 357.763 492.383V509.141H353.427V492.36C353.411 490.532 352.989 489.18 352.161 488.305C351.349 487.43 350.075 486.993 348.341 486.993C346.935 486.993 345.7 487.368 344.638 488.118C343.575 488.868 342.747 489.852 342.153 491.071V509.141H337.817V483.782H341.919ZM370.185 477.641V483.782H374.919V487.133H370.185V502.86C370.185 503.875 370.396 504.641 370.817 505.157C371.239 505.657 371.958 505.907 372.974 505.907C373.474 505.907 374.161 505.813 375.036 505.625V509.141C373.896 509.454 372.786 509.61 371.708 509.61C369.771 509.61 368.31 509.024 367.325 507.852C366.341 506.68 365.849 505.016 365.849 502.86V487.133H361.231V483.782H365.849V477.641H370.185ZM378.388 496.227C378.388 493.743 378.872 491.508 379.841 489.524C380.825 487.54 382.185 486.008 383.919 484.93C385.669 483.852 387.661 483.313 389.896 483.313C393.349 483.313 396.138 484.508 398.263 486.899C400.403 489.29 401.474 492.469 401.474 496.438V496.743C401.474 499.211 400.997 501.43 400.044 503.399C399.106 505.352 397.755 506.875 395.989 507.969C394.239 509.063 392.224 509.61 389.942 509.61C386.505 509.61 383.716 508.415 381.575 506.024C379.45 503.633 378.388 500.469 378.388 496.532V496.227ZM382.747 496.743C382.747 499.555 383.396 501.813 384.692 503.516C386.005 505.219 387.755 506.071 389.942 506.071C392.146 506.071 393.896 505.211 395.192 503.493C396.489 501.758 397.138 499.336 397.138 496.227C397.138 493.446 396.474 491.196 395.146 489.477C393.833 487.743 392.083 486.875 389.896 486.875C387.755 486.875 386.028 487.727 384.716 489.43C383.403 491.133 382.747 493.571 382.747 496.743ZM411.622 509.141H407.286V473.141H411.622V509.141ZM417.435 496.227C417.435 493.743 417.919 491.508 418.888 489.524C419.872 487.54 421.231 486.008 422.966 484.93C424.716 483.852 426.708 483.313 428.942 483.313C432.396 483.313 435.185 484.508 437.31 486.899C439.45 489.29 440.521 492.469 440.521 496.438V496.743C440.521 499.211 440.044 501.43 439.091 503.399C438.153 505.352 436.802 506.875 435.036 507.969C433.286 509.063 431.271 509.61 428.989 509.61C425.552 509.61 422.763 508.415 420.622 506.024C418.497 503.633 417.435 500.469 417.435 496.532V496.227ZM421.794 496.743C421.794 499.555 422.442 501.813 423.739 503.516C425.052 505.219 426.802 506.071 428.989 506.071C431.192 506.071 432.942 505.211 434.239 503.493C435.536 501.758 436.185 499.336 436.185 496.227C436.185 493.446 435.521 491.196 434.192 489.477C432.88 487.743 431.13 486.875 428.942 486.875C426.802 486.875 425.075 487.727 423.763 489.43C422.45 491.133 421.794 493.571 421.794 496.743ZM444.927 496.25C444.927 492.297 445.841 489.157 447.669 486.829C449.497 484.485 451.919 483.313 454.935 483.313C458.028 483.313 460.442 484.407 462.177 486.594L462.388 483.782H466.349V508.532C466.349 511.813 465.372 514.399 463.419 516.29C461.481 518.18 458.872 519.125 455.591 519.125C453.763 519.125 451.974 518.735 450.224 517.954C448.474 517.172 447.138 516.102 446.216 514.743L448.466 512.141C450.325 514.438 452.599 515.586 455.286 515.586C457.396 515.586 459.036 514.993 460.208 513.805C461.396 512.618 461.989 510.946 461.989 508.79V506.61C460.255 508.61 457.888 509.61 454.888 509.61C451.919 509.61 449.513 508.415 447.669 506.024C445.841 503.633 444.927 500.375 444.927 496.25ZM449.286 496.743C449.286 499.602 449.872 501.852 451.044 503.493C452.216 505.118 453.856 505.93 455.966 505.93C458.7 505.93 460.708 504.688 461.989 502.204V490.625C460.661 488.204 458.669 486.993 456.013 486.993C453.903 486.993 452.255 487.813 451.067 489.454C449.88 491.094 449.286 493.524 449.286 496.743ZM481.208 502.79L487.114 483.782H491.755L481.56 513.055C479.981 517.274 477.474 519.383 474.036 519.383L473.216 519.313L471.599 519.008V515.493L472.771 515.586C474.239 515.586 475.38 515.29 476.192 514.696C477.021 514.102 477.7 513.016 478.231 511.438L479.192 508.86L470.146 483.782H474.88L481.208 502.79Z" fill="#3380C4"/>
<path d="M295.152 1511V1449.39H312.544C317.905 1449.39 322.644 1450.57 326.763 1452.94C330.882 1455.31 334.056 1458.68 336.285 1463.05C338.541 1467.43 339.684 1472.45 339.712 1478.12V1482.05C339.712 1487.87 338.584 1492.96 336.327 1497.33C334.098 1501.7 330.896 1505.06 326.721 1507.4C322.574 1509.74 317.735 1510.94 312.206 1511H295.152ZM303.277 1456.07V1504.36H311.825C318.088 1504.36 322.954 1502.41 326.424 1498.52C329.923 1494.62 331.672 1489.08 331.672 1481.89V1478.29C331.672 1471.29 330.022 1465.86 326.721 1462C323.448 1458.1 318.793 1456.13 312.756 1456.07H303.277ZM385.119 1494.92H359.305L353.508 1511H345.129L368.658 1449.39H375.767L399.338 1511H391.001L385.119 1494.92ZM361.76 1488.23H382.707L372.212 1459.41L361.76 1488.23ZM418.127 1449.39L438.27 1499.66L458.413 1449.39H468.951V1511H460.826V1487.01L461.587 1461.11L441.359 1511H435.139L414.953 1461.23L415.757 1487.01V1511H407.632V1449.39H418.127Z" fill="#01308D"/>
<path d="M324.747 1552.53C324.747 1555.87 324.185 1558.79 323.06 1561.29C321.935 1563.78 320.341 1565.68 318.278 1566.99C316.216 1568.3 313.81 1568.96 311.06 1568.96C308.372 1568.96 305.989 1568.3 303.911 1566.99C301.833 1565.66 300.216 1563.78 299.06 1561.34C297.919 1558.89 297.333 1556.05 297.302 1552.83V1550.37C297.302 1547.09 297.872 1544.19 299.013 1541.68C300.153 1539.16 301.763 1537.24 303.841 1535.91C305.935 1534.57 308.325 1533.89 311.013 1533.89C313.747 1533.89 316.153 1534.56 318.231 1535.89C320.325 1537.2 321.935 1539.11 323.06 1541.63C324.185 1544.13 324.747 1547.04 324.747 1550.37V1552.53ZM320.271 1550.32C320.271 1546.28 319.458 1543.18 317.833 1541.02C316.208 1538.85 313.935 1537.76 311.013 1537.76C308.169 1537.76 305.927 1538.85 304.286 1541.02C302.661 1543.18 301.825 1546.18 301.778 1550.02V1552.53C301.778 1556.45 302.599 1559.53 304.239 1561.78C305.896 1564.02 308.169 1565.14 311.06 1565.14C313.966 1565.14 316.216 1564.08 317.81 1561.97C319.403 1559.85 320.224 1556.81 320.271 1552.85V1550.32ZM334.919 1543.13L335.06 1546.32C336.997 1543.88 339.528 1542.66 342.653 1542.66C348.013 1542.66 350.716 1545.68 350.763 1551.73V1568.49H346.427V1551.71C346.411 1549.88 345.989 1548.53 345.161 1547.65C344.349 1546.78 343.075 1546.34 341.341 1546.34C339.935 1546.34 338.7 1546.71 337.638 1547.46C336.575 1548.21 335.747 1549.2 335.153 1550.42V1568.49H330.817V1543.13H334.919ZM363.185 1536.99V1543.13H367.919V1546.48H363.185V1562.21C363.185 1563.22 363.396 1563.99 363.817 1564.5C364.239 1565 364.958 1565.25 365.974 1565.25C366.474 1565.25 367.161 1565.16 368.036 1564.97V1568.49C366.896 1568.8 365.786 1568.96 364.708 1568.96C362.771 1568.96 361.31 1568.37 360.325 1567.2C359.341 1566.03 358.849 1564.36 358.849 1562.21V1546.48H354.231V1543.13H358.849V1536.99H363.185ZM371.388 1555.57C371.388 1553.09 371.872 1550.85 372.841 1548.87C373.825 1546.89 375.185 1545.35 376.919 1544.28C378.669 1543.2 380.661 1542.66 382.896 1542.66C386.349 1542.66 389.138 1543.85 391.263 1546.25C393.403 1548.64 394.474 1551.82 394.474 1555.78V1556.09C394.474 1558.56 393.997 1560.78 393.044 1562.75C392.106 1564.7 390.755 1566.22 388.989 1567.32C387.239 1568.41 385.224 1568.96 382.942 1568.96C379.505 1568.96 376.716 1567.76 374.575 1565.37C372.45 1562.98 371.388 1559.82 371.388 1555.88V1555.57ZM375.747 1556.09C375.747 1558.9 376.396 1561.16 377.692 1562.86C379.005 1564.57 380.755 1565.42 382.942 1565.42C385.146 1565.42 386.896 1564.56 388.192 1562.84C389.489 1561.1 390.138 1558.68 390.138 1555.57C390.138 1552.79 389.474 1550.54 388.146 1548.82C386.833 1547.09 385.083 1546.22 382.896 1546.22C380.755 1546.22 379.028 1547.07 377.716 1548.78C376.403 1550.48 375.747 1552.92 375.747 1556.09ZM404.622 1568.49H400.286V1532.49H404.622V1568.49ZM410.435 1555.57C410.435 1553.09 410.919 1550.85 411.888 1548.87C412.872 1546.89 414.231 1545.35 415.966 1544.28C417.716 1543.2 419.708 1542.66 421.942 1542.66C425.396 1542.66 428.185 1543.85 430.31 1546.25C432.45 1548.64 433.521 1551.82 433.521 1555.78V1556.09C433.521 1558.56 433.044 1560.78 432.091 1562.75C431.153 1564.7 429.802 1566.22 428.036 1567.32C426.286 1568.41 424.271 1568.96 421.989 1568.96C418.552 1568.96 415.763 1567.76 413.622 1565.37C411.497 1562.98 410.435 1559.82 410.435 1555.88V1555.57ZM414.794 1556.09C414.794 1558.9 415.442 1561.16 416.739 1562.86C418.052 1564.57 419.802 1565.42 421.989 1565.42C424.192 1565.42 425.942 1564.56 427.239 1562.84C428.536 1561.1 429.185 1558.68 429.185 1555.57C429.185 1552.79 428.521 1550.54 427.192 1548.82C425.88 1547.09 424.13 1546.22 421.942 1546.22C419.802 1546.22 418.075 1547.07 416.763 1548.78C415.45 1550.48 414.794 1552.92 414.794 1556.09ZM437.927 1555.6C437.927 1551.64 438.841 1548.5 440.669 1546.18C442.497 1543.83 444.919 1542.66 447.935 1542.66C451.028 1542.66 453.442 1543.75 455.177 1545.94L455.388 1543.13H459.349V1567.88C459.349 1571.16 458.372 1573.75 456.419 1575.64C454.481 1577.53 451.872 1578.47 448.591 1578.47C446.763 1578.47 444.974 1578.08 443.224 1577.3C441.474 1576.52 440.138 1575.45 439.216 1574.09L441.466 1571.49C443.325 1573.78 445.599 1574.93 448.286 1574.93C450.396 1574.93 452.036 1574.34 453.208 1573.15C454.396 1571.96 454.989 1570.29 454.989 1568.14V1565.96C453.255 1567.96 450.888 1568.96 447.888 1568.96C444.919 1568.96 442.513 1567.76 440.669 1565.37C438.841 1562.98 437.927 1559.72 437.927 1555.6ZM442.286 1556.09C442.286 1558.95 442.872 1561.2 444.044 1562.84C445.216 1564.46 446.856 1565.28 448.966 1565.28C451.7 1565.28 453.708 1564.03 454.989 1561.55V1549.97C453.661 1547.55 451.669 1546.34 449.013 1546.34C446.903 1546.34 445.255 1547.16 444.067 1548.8C442.88 1550.44 442.286 1552.87 442.286 1556.09ZM474.208 1562.14L480.114 1543.13H484.755L474.56 1572.4C472.981 1576.62 470.474 1578.73 467.036 1578.73L466.216 1578.66L464.599 1578.35V1574.84L465.771 1574.93C467.239 1574.93 468.38 1574.64 469.192 1574.04C470.021 1573.45 470.7 1572.36 471.231 1570.78L472.192 1568.21L463.146 1543.13H467.88L474.208 1562.14Z" fill="#3380C4"/>
<path fill-rule="evenodd" clip-rule="evenodd" d="M245.096 1433.66L220.735 1461.02L218.994 1458.07L218.993 1458.07L218.992 1458.07L218.992 1458.07L218.979 1458.05C218.966 1458.03 218.945 1457.99 218.916 1457.95C218.858 1457.85 218.768 1457.71 218.647 1457.52C218.404 1457.14 218.037 1456.59 217.552 1455.9C216.582 1454.52 215.146 1452.63 213.301 1450.57C209.581 1446.43 204.333 1441.8 198.004 1439.33C195.485 1438.34 192.731 1438.76 189.738 1440.32C186.723 1441.9 183.728 1444.52 181.025 1447.44C178.341 1450.35 176.052 1453.43 174.427 1455.8C173.617 1456.98 172.978 1457.98 172.544 1458.68C172.327 1459.03 172.161 1459.3 172.051 1459.48C171.996 1459.57 171.956 1459.64 171.929 1459.69L171.9 1459.74L171.894 1459.75L171.893 1459.75C171.893 1459.75 171.894 1459.75 169.729 1458.5C167.564 1457.25 167.564 1457.25 167.564 1457.25L167.569 1457.24L167.58 1457.22L167.618 1457.16C167.651 1457.1 167.699 1457.02 167.761 1456.92C167.885 1456.71 168.066 1456.41 168.299 1456.04C168.766 1455.29 169.445 1454.23 170.302 1452.98C172.011 1450.48 174.451 1447.19 177.353 1444.05C180.236 1440.93 183.682 1437.84 187.422 1435.89C191.184 1433.92 195.499 1432.98 199.822 1434.67C207.177 1437.54 213.045 1442.81 217.02 1447.23C218.894 1449.32 220.377 1451.25 221.429 1452.72L241.362 1430.34L245.096 1433.66Z" fill="url(#paint16_linear)"/>
<path fill-rule="evenodd" clip-rule="evenodd" d="M245.096 1479.34L220.735 1451.98L218.994 1454.93L218.993 1454.93L218.993 1454.93L218.992 1454.93L218.979 1454.95C218.966 1454.97 218.945 1455.01 218.916 1455.05C218.858 1455.15 218.768 1455.29 218.647 1455.48C218.404 1455.86 218.037 1456.41 217.553 1457.1C216.582 1458.48 215.146 1460.37 213.301 1462.43C209.581 1466.57 204.333 1471.2 198.004 1473.67C195.43 1474.68 192.639 1474.32 189.653 1472.9C186.643 1471.47 183.657 1469.05 180.962 1466.34C178.286 1463.65 176.002 1460.78 174.381 1458.57C173.573 1457.46 172.936 1456.53 172.503 1455.88C172.287 1455.56 172.122 1455.3 172.013 1455.13C171.958 1455.05 171.918 1454.98 171.891 1454.94L171.863 1454.9L171.857 1454.89L171.857 1454.89C171.857 1454.89 171.857 1454.89 169.729 1456.2C167.601 1457.51 167.601 1457.51 167.602 1457.51L167.606 1457.52L167.617 1457.54L167.656 1457.6C167.689 1457.65 167.737 1457.73 167.8 1457.83C167.924 1458.02 168.106 1458.3 168.34 1458.65C168.809 1459.36 169.489 1460.35 170.348 1461.52C172.061 1463.86 174.507 1466.94 177.417 1469.87C180.307 1472.77 183.762 1475.64 187.507 1477.42C191.276 1479.21 195.554 1479.99 199.822 1478.33C207.177 1475.46 213.045 1470.19 217.02 1465.77C218.894 1463.68 220.378 1461.75 221.429 1460.28L241.362 1482.66L245.096 1479.34Z" fill="url(#paint17_linear)"/>
<path d="M245.229 1434C245.229 1436.21 243.438 1438 241.229 1438C239.019 1438 237.229 1436.21 237.229 1434C237.229 1431.79 239.019 1430 241.229 1430C243.438 1430 245.229 1431.79 245.229 1434Z" fill="#01308D"/>
<path fill-rule="evenodd" clip-rule="evenodd" d="M241.229 1437C242.885 1437 244.229 1435.66 244.229 1434C244.229 1432.34 242.885 1431 241.229 1431C239.572 1431 238.229 1432.34 238.229 1434C238.229 1435.66 239.572 1437 241.229 1437ZM241.229 1438C243.438 1438 245.229 1436.21 245.229 1434C245.229 1431.79 243.438 1430 241.229 1430C239.019 1430 237.229 1431.79 237.229 1434C237.229 1436.21 239.019 1438 241.229 1438Z" fill="#C3CEFD"/>
<path d="M225.229 1456C225.229 1458.21 223.438 1460 221.229 1460C219.019 1460 217.229 1458.21 217.229 1456C217.229 1453.79 219.019 1452 221.229 1452C223.438 1452 225.229 1453.79 225.229 1456Z" fill="#01308D"/>
<path fill-rule="evenodd" clip-rule="evenodd" d="M221.229 1459C222.885 1459 224.229 1457.66 224.229 1456C224.229 1454.34 222.885 1453 221.229 1453C219.572 1453 218.229 1454.34 218.229 1456C218.229 1457.66 219.572 1459 221.229 1459ZM221.229 1460C223.438 1460 225.229 1458.21 225.229 1456C225.229 1453.79 223.438 1452 221.229 1452C219.019 1452 217.229 1453.79 217.229 1456C217.229 1458.21 219.019 1460 221.229 1460Z" fill="#C3CEFD"/>
<path d="M245.229 1479C245.229 1481.21 243.438 1483 241.229 1483C239.019 1483 237.229 1481.21 237.229 1479C237.229 1476.79 239.019 1475 241.229 1475C243.438 1475 245.229 1476.79 245.229 1479Z" fill="#01308D"/>
<path fill-rule="evenodd" clip-rule="evenodd" d="M241.229 1482C242.885 1482 244.229 1480.66 244.229 1479C244.229 1477.34 242.885 1476 241.229 1476C239.572 1476 238.229 1477.34 238.229 1479C238.229 1480.66 239.572 1482 241.229 1482ZM241.229 1483C243.438 1483 245.229 1481.21 245.229 1479C245.229 1476.79 243.438 1475 241.229 1475C239.019 1475 237.229 1476.79 237.229 1479C237.229 1481.21 239.019 1483 241.229 1483Z" fill="#C3CEFD"/>
<path fill-rule="evenodd" clip-rule="evenodd" d="M208.176 1362.09C231.545 1363.1 250.44 1372.74 269.419 1393.5L262.039 1400.25C244.48 1381.04 227.953 1372.95 207.745 1372.08C188.257 1371.24 164.968 1377.07 133.469 1387.55L175.907 1452.13L167.55 1457.62L118 1382.22L124.121 1380.14C158.632 1368.42 185.331 1361.1 208.176 1362.09Z" fill="url(#paint18_linear)"/>
<path fill-rule="evenodd" clip-rule="evenodd" d="M208.176 1552.78C231.545 1551.78 250.44 1542.13 269.419 1521.37L262.039 1514.63C244.48 1533.83 227.953 1541.92 207.745 1542.79C188.257 1543.63 164.968 1537.8 133.469 1527.33L175.907 1462.75L167.55 1457.25L118 1532.66L124.121 1534.73C158.632 1546.45 185.331 1553.77 208.176 1552.78Z" fill="url(#paint19_linear)"/>
<path d="M127.567 1977.88H100.268V2000.21H131.979V2007H91.9621V1944.01H131.547V1950.85H100.268V1971.09H127.567V1977.88ZM142.319 2007V1944.01H160.099C165.579 1944.01 170.424 1945.22 174.635 1947.64C178.846 1950.07 182.091 1953.51 184.369 1957.98C186.676 1962.45 187.845 1967.59 187.873 1973.39V1977.41C187.873 1983.35 186.72 1988.56 184.412 1993.03C182.134 1997.5 178.86 2000.93 174.592 2003.32C170.352 2005.72 165.406 2006.94 159.753 2007H142.319ZM150.625 1950.85V2000.21H159.364C165.767 2000.21 170.742 1998.22 174.289 1994.24C177.865 1990.26 179.654 1984.59 179.654 1977.24V1973.56C179.654 1966.41 177.966 1960.85 174.592 1956.9C171.246 1952.92 166.488 1950.9 160.316 1950.85H150.625ZM234.293 1990.56H207.904L201.977 2007H193.411L217.464 1944.01H224.732L248.829 2007H240.307L234.293 1990.56ZM210.413 1983.73H231.827L221.098 1954.26L210.413 1983.73ZM268.037 1944.01L288.63 1995.41L309.222 1944.01H319.995V2007H311.688V1982.47L312.467 1955.99L291.788 2007H285.429L264.793 1956.12L265.615 1982.47V2007H257.308V1944.01H268.037Z" fill="#01308D"/>
<path d="M140.797 2047.04C140.797 2050.38 140.234 2053.3 139.109 2055.8C137.984 2058.29 136.391 2060.19 134.328 2061.5C132.266 2062.81 129.859 2063.47 127.109 2063.47C124.422 2063.47 122.039 2062.81 119.961 2061.5C117.883 2060.17 116.266 2058.29 115.109 2055.85C113.969 2053.4 113.383 2050.56 113.352 2047.34V2044.88C113.352 2041.6 113.922 2038.7 115.062 2036.19C116.203 2033.67 117.812 2031.75 119.891 2030.42C121.984 2029.08 124.375 2028.41 127.062 2028.41C129.797 2028.41 132.203 2029.07 134.281 2030.4C136.375 2031.71 137.984 2033.62 139.109 2036.14C140.234 2038.64 140.797 2041.55 140.797 2044.88V2047.04ZM136.32 2044.84C136.32 2040.79 135.508 2037.69 133.883 2035.53C132.258 2033.36 129.984 2032.27 127.062 2032.27C124.219 2032.27 121.977 2033.36 120.336 2035.53C118.711 2037.69 117.875 2040.69 117.828 2044.53V2047.04C117.828 2050.96 118.648 2054.05 120.289 2056.3C121.945 2058.53 124.219 2059.65 127.109 2059.65C130.016 2059.65 132.266 2058.59 133.859 2056.48C135.453 2054.36 136.273 2051.32 136.32 2047.37V2044.84ZM150.969 2037.64L151.109 2040.83C153.047 2038.39 155.578 2037.17 158.703 2037.17C164.062 2037.17 166.766 2040.2 166.812 2046.24V2063H162.477V2046.22C162.461 2044.39 162.039 2043.04 161.211 2042.16C160.398 2041.29 159.125 2040.85 157.391 2040.85C155.984 2040.85 154.75 2041.23 153.688 2041.98C152.625 2042.73 151.797 2043.71 151.203 2044.93V2063H146.867V2037.64H150.969ZM179.234 2031.5V2037.64H183.969V2040.99H179.234V2056.72C179.234 2057.73 179.445 2058.5 179.867 2059.02C180.289 2059.52 181.008 2059.77 182.023 2059.77C182.523 2059.77 183.211 2059.67 184.086 2059.48V2063C182.945 2063.31 181.836 2063.47 180.758 2063.47C178.82 2063.47 177.359 2062.88 176.375 2061.71C175.391 2060.54 174.898 2058.88 174.898 2056.72V2040.99H170.281V2037.64H174.898V2031.5H179.234ZM187.438 2050.09C187.438 2047.6 187.922 2045.37 188.891 2043.38C189.875 2041.4 191.234 2039.87 192.969 2038.79C194.719 2037.71 196.711 2037.17 198.945 2037.17C202.398 2037.17 205.188 2038.37 207.312 2040.76C209.453 2043.15 210.523 2046.33 210.523 2050.3V2050.6C210.523 2053.07 210.047 2055.29 209.094 2057.26C208.156 2059.21 206.805 2060.73 205.039 2061.83C203.289 2062.92 201.273 2063.47 198.992 2063.47C195.555 2063.47 192.766 2062.27 190.625 2059.88C188.5 2057.49 187.438 2054.33 187.438 2050.39V2050.09ZM191.797 2050.6C191.797 2053.41 192.445 2055.67 193.742 2057.38C195.055 2059.08 196.805 2059.93 198.992 2059.93C201.195 2059.93 202.945 2059.07 204.242 2057.35C205.539 2055.62 206.188 2053.2 206.188 2050.09C206.188 2047.3 205.523 2045.05 204.195 2043.34C202.883 2041.6 201.133 2040.73 198.945 2040.73C196.805 2040.73 195.078 2041.59 193.766 2043.29C192.453 2044.99 191.797 2047.43 191.797 2050.6ZM220.672 2063H216.336V2027H220.672V2063ZM226.484 2050.09C226.484 2047.6 226.969 2045.37 227.938 2043.38C228.922 2041.4 230.281 2039.87 232.016 2038.79C233.766 2037.71 235.758 2037.17 237.992 2037.17C241.445 2037.17 244.234 2038.37 246.359 2040.76C248.5 2043.15 249.57 2046.33 249.57 2050.3V2050.6C249.57 2053.07 249.094 2055.29 248.141 2057.26C247.203 2059.21 245.852 2060.73 244.086 2061.83C242.336 2062.92 240.32 2063.47 238.039 2063.47C234.602 2063.47 231.812 2062.27 229.672 2059.88C227.547 2057.49 226.484 2054.33 226.484 2050.39V2050.09ZM230.844 2050.6C230.844 2053.41 231.492 2055.67 232.789 2057.38C234.102 2059.08 235.852 2059.93 238.039 2059.93C240.242 2059.93 241.992 2059.07 243.289 2057.35C244.586 2055.62 245.234 2053.2 245.234 2050.09C245.234 2047.3 244.57 2045.05 243.242 2043.34C241.93 2041.6 240.18 2040.73 237.992 2040.73C235.852 2040.73 234.125 2041.59 232.812 2043.29C231.5 2044.99 230.844 2047.43 230.844 2050.6ZM253.977 2050.11C253.977 2046.16 254.891 2043.02 256.719 2040.69C258.547 2038.34 260.969 2037.17 263.984 2037.17C267.078 2037.17 269.492 2038.27 271.227 2040.45L271.438 2037.64H275.398V2062.39C275.398 2065.67 274.422 2068.26 272.469 2070.15C270.531 2072.04 267.922 2072.98 264.641 2072.98C262.812 2072.98 261.023 2072.59 259.273 2071.81C257.523 2071.03 256.188 2069.96 255.266 2068.6L257.516 2066C259.375 2068.3 261.648 2069.45 264.336 2069.45C266.445 2069.45 268.086 2068.85 269.258 2067.66C270.445 2066.48 271.039 2064.8 271.039 2062.65V2060.47C269.305 2062.47 266.938 2063.47 263.938 2063.47C260.969 2063.47 258.562 2062.27 256.719 2059.88C254.891 2057.49 253.977 2054.23 253.977 2050.11ZM258.336 2050.6C258.336 2053.46 258.922 2055.71 260.094 2057.35C261.266 2058.98 262.906 2059.79 265.016 2059.79C267.75 2059.79 269.758 2058.55 271.039 2056.06V2044.48C269.711 2042.06 267.719 2040.85 265.062 2040.85C262.953 2040.85 261.305 2041.67 260.117 2043.31C258.93 2044.95 258.336 2047.38 258.336 2050.6ZM290.258 2056.65L296.164 2037.64H300.805L290.609 2066.91C289.031 2071.13 286.523 2073.24 283.086 2073.24L282.266 2073.17L280.648 2072.87V2069.35L281.82 2069.45C283.289 2069.45 284.43 2069.15 285.242 2068.55C286.07 2067.96 286.75 2066.88 287.281 2065.3L288.242 2062.72L279.195 2037.64H283.93L290.258 2056.65Z" fill="#3380C4"/>
<path fill-rule="evenodd" clip-rule="evenodd" d="M245.096 1786.66L220.735 1814.02L218.994 1811.07L218.993 1811.07L218.992 1811.07L218.992 1811.07L218.979 1811.05C218.966 1811.03 218.945 1810.99 218.916 1810.95C218.858 1810.85 218.768 1810.71 218.647 1810.52C218.404 1810.14 218.037 1809.59 217.552 1808.9C216.582 1807.52 215.146 1805.63 213.301 1803.57C209.581 1799.43 204.333 1794.8 198.004 1792.33C195.485 1791.34 192.731 1791.76 189.738 1793.32C186.723 1794.9 183.728 1797.52 181.025 1800.44C178.341 1803.35 176.052 1806.43 174.427 1808.8C173.617 1809.98 172.978 1810.98 172.544 1811.68C172.327 1812.03 172.161 1812.3 172.051 1812.48C171.996 1812.57 171.956 1812.64 171.929 1812.69L171.9 1812.74L171.894 1812.75L171.893 1812.75C171.893 1812.75 171.894 1812.75 169.729 1811.5C167.564 1810.25 167.564 1810.25 167.564 1810.25L167.569 1810.24L167.58 1810.22L167.618 1810.16C167.651 1810.1 167.699 1810.02 167.761 1809.92C167.885 1809.71 168.066 1809.41 168.299 1809.04C168.766 1808.29 169.445 1807.23 170.302 1805.98C172.011 1803.48 174.451 1800.19 177.353 1797.05C180.236 1793.93 183.682 1790.84 187.422 1788.89C191.184 1786.92 195.499 1785.98 199.822 1787.67C207.177 1790.54 213.045 1795.81 217.02 1800.23C218.894 1802.32 220.377 1804.25 221.429 1805.72L241.362 1783.34L245.096 1786.66Z" fill="url(#paint20_linear)"/>
<path fill-rule="evenodd" clip-rule="evenodd" d="M245.096 1832.34L220.735 1804.98L218.994 1807.93L218.993 1807.93L218.993 1807.93L218.992 1807.93L218.979 1807.95C218.966 1807.97 218.945 1808.01 218.916 1808.05C218.858 1808.15 218.768 1808.29 218.647 1808.48C218.404 1808.86 218.037 1809.41 217.553 1810.1C216.582 1811.48 215.146 1813.37 213.301 1815.43C209.581 1819.57 204.333 1824.2 198.004 1826.67C195.43 1827.68 192.639 1827.32 189.653 1825.9C186.643 1824.47 183.657 1822.05 180.962 1819.34C178.286 1816.65 176.002 1813.78 174.381 1811.57C173.573 1810.46 172.936 1809.53 172.503 1808.88C172.287 1808.56 172.122 1808.3 172.013 1808.13C171.958 1808.05 171.918 1807.98 171.891 1807.94L171.863 1807.9L171.857 1807.89L171.857 1807.89C171.857 1807.89 171.857 1807.89 169.729 1809.2C167.601 1810.51 167.601 1810.51 167.602 1810.51L167.606 1810.52L167.617 1810.54L167.656 1810.6C167.689 1810.65 167.737 1810.73 167.8 1810.83C167.924 1811.02 168.106 1811.3 168.34 1811.65C168.809 1812.36 169.489 1813.35 170.348 1814.52C172.061 1816.86 174.507 1819.94 177.417 1822.87C180.307 1825.77 183.762 1828.64 187.507 1830.42C191.276 1832.21 195.554 1832.99 199.822 1831.33C207.177 1828.46 213.045 1823.19 217.02 1818.77C218.894 1816.68 220.378 1814.75 221.429 1813.28L241.362 1835.66L245.096 1832.34Z" fill="url(#paint21_linear)"/>
<path d="M245.229 1787C245.229 1789.21 243.438 1791 241.229 1791C239.019 1791 237.229 1789.21 237.229 1787C237.229 1784.79 239.019 1783 241.229 1783C243.438 1783 245.229 1784.79 245.229 1787Z" fill="#01308D"/>
<path fill-rule="evenodd" clip-rule="evenodd" d="M241.229 1790C242.885 1790 244.229 1788.66 244.229 1787C244.229 1785.34 242.885 1784 241.229 1784C239.572 1784 238.229 1785.34 238.229 1787C238.229 1788.66 239.572 1790 241.229 1790ZM241.229 1791C243.438 1791 245.229 1789.21 245.229 1787C245.229 1784.79 243.438 1783 241.229 1783C239.019 1783 237.229 1784.79 237.229 1787C237.229 1789.21 239.019 1791 241.229 1791Z" fill="#C3CEFD"/>
<path d="M225.229 1809C225.229 1811.21 223.438 1813 221.229 1813C219.019 1813 217.229 1811.21 217.229 1809C217.229 1806.79 219.019 1805 221.229 1805C223.438 1805 225.229 1806.79 225.229 1809Z" fill="#01308D"/>
<path fill-rule="evenodd" clip-rule="evenodd" d="M221.229 1812C222.885 1812 224.229 1810.66 224.229 1809C224.229 1807.34 222.885 1806 221.229 1806C219.572 1806 218.229 1807.34 218.229 1809C218.229 1810.66 219.572 1812 221.229 1812ZM221.229 1813C223.438 1813 225.229 1811.21 225.229 1809C225.229 1806.79 223.438 1805 221.229 1805C219.019 1805 217.229 1806.79 217.229 1809C217.229 1811.21 219.019 1813 221.229 1813Z" fill="#C3CEFD"/>
<path d="M245.229 1832C245.229 1834.21 243.438 1836 241.229 1836C239.019 1836 237.229 1834.21 237.229 1832C237.229 1829.79 239.019 1828 241.229 1828C243.438 1828 245.229 1829.79 245.229 1832Z" fill="#01308D"/>
<path fill-rule="evenodd" clip-rule="evenodd" d="M241.229 1835C242.885 1835 244.229 1833.66 244.229 1832C244.229 1830.34 242.885 1829 241.229 1829C239.572 1829 238.229 1830.34 238.229 1832C238.229 1833.66 239.572 1835 241.229 1835ZM241.229 1836C243.438 1836 245.229 1834.21 245.229 1832C245.229 1829.79 243.438 1828 241.229 1828C239.019 1828 237.229 1829.79 237.229 1832C237.229 1834.21 239.019 1836 241.229 1836Z" fill="#C3CEFD"/>
<path fill-rule="evenodd" clip-rule="evenodd" d="M208.176 1715.09C231.545 1716.1 250.44 1725.74 269.419 1746.5L262.039 1753.25C244.48 1734.04 227.953 1725.95 207.745 1725.08C188.257 1724.24 164.968 1730.07 133.469 1740.55L175.907 1805.13L167.55 1810.62L118 1735.22L124.121 1733.14C158.632 1721.42 185.331 1714.1 208.176 1715.09Z" fill="url(#paint22_linear)"/>
<path fill-rule="evenodd" clip-rule="evenodd" d="M208.176 1905.78C231.545 1904.78 250.44 1895.13 269.419 1874.37L262.039 1867.63C244.48 1886.83 227.953 1894.92 207.745 1895.79C188.257 1896.63 164.968 1890.8 133.469 1880.33L175.907 1815.75L167.55 1810.25L118 1885.66L124.121 1887.73C158.632 1899.45 185.331 1906.77 208.176 1905.78Z" fill="url(#paint23_linear)"/>
<defs>
<linearGradient id="paint0_linear" x1="250.229" y1="426.999" x2="112.729" y2="457" gradientUnits="userSpaceOnUse">
<stop stop-color="#01308D"/>
<stop offset="1" stop-color="#008000" stop-opacity="0"/>
</linearGradient>
<linearGradient id="paint1_linear" x1="250.229" y1="434" x2="112.729" y2="404" gradientUnits="userSpaceOnUse">
<stop stop-color="#01308D"/>
<stop offset="1" stop-color="#008000" stop-opacity="0"/>
</linearGradient>
<linearGradient id="paint2_linear" x1="192.729" y1="341" x2="192.729" y2="428.873" gradientUnits="userSpaceOnUse">
<stop stop-color="#01308D"/>
<stop offset="1" stop-color="#008000" stop-opacity="0.35"/>
</linearGradient>
<linearGradient id="paint3_linear" x1="192.729" y1="521.873" x2="192.729" y2="434" gradientUnits="userSpaceOnUse">
<stop stop-color="#01308D"/>
<stop offset="1" stop-color="#008000" stop-opacity="0.35"/>
</linearGradient>
<linearGradient id="paint4_linear" x1="250.229" y1="752.999" x2="112.729" y2="783" gradientUnits="userSpaceOnUse">
<stop stop-color="#01308D"/>
<stop offset="1" stop-color="#008000" stop-opacity="0"/>
</linearGradient>
<linearGradient id="paint5_linear" x1="250.229" y1="760" x2="112.729" y2="730" gradientUnits="userSpaceOnUse">
<stop stop-color="#01308D"/>
<stop offset="1" stop-color="#008000" stop-opacity="0"/>
</linearGradient>
<linearGradient id="paint6_linear" x1="192.729" y1="667" x2="192.729" y2="754.873" gradientUnits="userSpaceOnUse">
<stop stop-color="#01308D"/>
<stop offset="1" stop-color="#008000" stop-opacity="0.35"/>
</linearGradient>
<linearGradient id="paint7_linear" x1="192.729" y1="847.873" x2="192.729" y2="760" gradientUnits="userSpaceOnUse">
<stop stop-color="#01308D"/>
<stop offset="1" stop-color="#008000" stop-opacity="0.35"/>
</linearGradient>
<linearGradient id="paint8_linear" x1="124.663" y1="202.998" x2="109.889" y2="206.532" gradientUnits="userSpaceOnUse">
<stop stop-color="#01308D"/>
<stop offset="1" stop-color="#008000" stop-opacity="0"/>
</linearGradient>
<linearGradient id="paint9_linear" x1="124.663" y1="203.69" x2="109.889" y2="200.155" gradientUnits="userSpaceOnUse">
<stop stop-color="#01308D"/>
<stop offset="1" stop-color="#008000" stop-opacity="0"/>
</linearGradient>
<linearGradient id="paint10_linear" x1="118.428" y1="194.494" x2="118.428" y2="203.183" gradientUnits="userSpaceOnUse">
<stop stop-color="#01308D"/>
<stop offset="1" stop-color="#008000" stop-opacity="0.35"/>
</linearGradient>
<linearGradient id="paint11_linear" x1="118.428" y1="212.379" x2="118.428" y2="203.69" gradientUnits="userSpaceOnUse">
<stop stop-color="#01308D"/>
<stop offset="1" stop-color="#008000" stop-opacity="0.35"/>
</linearGradient>
<linearGradient id="paint12_linear" x1="261.257" y1="1052" x2="94.3315" y2="1097.31" gradientUnits="userSpaceOnUse">
<stop stop-color="#01308D"/>
<stop offset="1" stop-color="#008000" stop-opacity="0"/>
</linearGradient>
<linearGradient id="paint13_linear" x1="261.257" y1="1059" x2="94.3314" y2="1013.68" gradientUnits="userSpaceOnUse">
<stop stop-color="#01308D"/>
<stop offset="1" stop-color="#008000" stop-opacity="0"/>
</linearGradient>
<linearGradient id="paint14_linear" x1="189.713" y1="966" x2="189.713" y2="1053.87" gradientUnits="userSpaceOnUse">
<stop stop-color="#01308D"/>
<stop offset="1" stop-color="#008000" stop-opacity="0.35"/>
</linearGradient>
<linearGradient id="paint15_linear" x1="189.713" y1="1146.87" x2="189.713" y2="1059" gradientUnits="userSpaceOnUse">
<stop stop-color="#01308D"/>
<stop offset="1" stop-color="#008000" stop-opacity="0.35"/>
</linearGradient>
<linearGradient id="paint16_linear" x1="253.229" y1="1453" x2="115.729" y2="1483" gradientUnits="userSpaceOnUse">
<stop stop-color="#01308D"/>
<stop offset="1" stop-color="#008000" stop-opacity="0"/>
</linearGradient>
<linearGradient id="paint17_linear" x1="253.229" y1="1460" x2="115.729" y2="1430" gradientUnits="userSpaceOnUse">
<stop stop-color="#01308D"/>
<stop offset="1" stop-color="#008000" stop-opacity="0"/>
</linearGradient>
<linearGradient id="paint18_linear" x1="195.729" y1="1367" x2="195.729" y2="1454.87" gradientUnits="userSpaceOnUse">
<stop stop-color="#01308D"/>
<stop offset="1" stop-color="#008000" stop-opacity="0.35"/>
</linearGradient>
<linearGradient id="paint19_linear" x1="195.729" y1="1547.87" x2="195.729" y2="1460" gradientUnits="userSpaceOnUse">
<stop stop-color="#01308D"/>
<stop offset="1" stop-color="#008000" stop-opacity="0.35"/>
</linearGradient>
<linearGradient id="paint20_linear" x1="253.229" y1="1806" x2="115.729" y2="1836" gradientUnits="userSpaceOnUse">
<stop stop-color="#01308D"/>
<stop offset="1" stop-color="#008000" stop-opacity="0"/>
</linearGradient>
<linearGradient id="paint21_linear" x1="253.229" y1="1813" x2="115.729" y2="1783" gradientUnits="userSpaceOnUse">
<stop stop-color="#01308D"/>
<stop offset="1" stop-color="#008000" stop-opacity="0"/>
</linearGradient>
<linearGradient id="paint22_linear" x1="195.729" y1="1720" x2="195.729" y2="1807.87" gradientUnits="userSpaceOnUse">
<stop stop-color="#01308D"/>
<stop offset="1" stop-color="#008000" stop-opacity="0.35"/>
</linearGradient>
<linearGradient id="paint23_linear" x1="195.729" y1="1900.87" x2="195.729" y2="1813" gradientUnits="userSpaceOnUse">
<stop stop-color="#01308D"/>
<stop offset="1" stop-color="#008000" stop-opacity="0.35"/>
</linearGradient>
</defs>
</svg>
